<?xml version="1.0" encoding="utf-8"?>
<!-- Generator: Adobe Illustrator 27.5.0, SVG Export Plug-In . SVG Version: 6.00 Build 0)  -->
<svg version="1.1" xmlns="http://www.w3.org/2000/svg" xmlns:xlink="http://www.w3.org/1999/xlink" x="0px" y="0px"
	 viewBox="0 0 500 500" style="enable-background:new 0 0 500 500;" xml:space="preserve">
<g id="BACKGROUND">
	<g>
		<rect y="-0.005" style="fill:#820BB7;" width="500" height="500"/>
	</g>
</g>
<g id="OBJECT">
	<g>
		<polygon style="fill:#EE17E4;" points="249.99,69.45 115.618,69.45 115.618,377.293 250.385,377.293 		"/>
		<g>
			<g>
				<g>
					<polygon style="fill:#820BB7;" points="115.618,290.027 115.618,291.515 223.835,291.652 225.46,290.027 					"/>
				</g>
				<polygon style="fill:#820BB7;" points="115.618,291.515 115.618,286.801 137.034,286.801 132.424,291.412 				"/>
			</g>
		</g>
		<g>
			<g>
				
					<rect x="128.535" y="73.326" transform="matrix(-1.836970e-16 1 -1 -1.836970e-16 206.7544 -55.209)" style="fill:#750CFF;" width="4.894" height="4.894"/>
				
					<rect x="120.997" y="80.863" transform="matrix(-1.836970e-16 1 -1 -1.836970e-16 206.7545 -40.1339)" style="fill:#750CFF;" width="4.894" height="4.894"/>
			</g>
			<g>
				
					<rect x="231.095" y="73.326" transform="matrix(-1.836970e-16 1 -1 -1.836970e-16 309.3142 -157.7688)" style="fill:#750CFF;" width="4.894" height="4.894"/>
				
					<rect x="238.632" y="80.863" transform="matrix(-1.836970e-16 1 -1 -1.836970e-16 324.3894 -157.7688)" style="fill:#750CFF;" width="4.894" height="4.894"/>
			</g>
			<g>
				
					<rect x="128.535" y="220.003" transform="matrix(6.123234e-17 -1 1 6.123234e-17 -91.4686 353.4319)" style="fill:#750CFF;" width="4.894" height="4.894"/>
				
					<rect x="120.997" y="212.466" transform="matrix(6.123234e-17 -1 1 6.123234e-17 -91.4685 338.3568)" style="fill:#750CFF;" width="4.894" height="4.894"/>
			</g>
		</g>
	</g>
	<g>
		<g>
			<polygon style="fill:#750CFF;" points="42.163,204.782 42.163,223.439 145.298,326.575 145.099,358.562 42.163,255.626 
				19.646,233.109 19.646,182.296 42.163,182.296 145.099,182.296 122.614,204.782 			"/>
		</g>
		<polygon style="fill:#750CFF;" points="137.02,204.782 159.505,182.296 188.318,182.296 165.833,204.782 		"/>
	</g>
	<g>
		<rect x="85.644" y="244.867" style="fill:none;stroke:#FFFFFF;stroke-miterlimit:10;" width="150.429" height="170.962"/>
	</g>
	<g>
		<polyline style="fill:none;stroke:#FFFFFF;stroke-miterlimit:10;" points="38.028,103.549 94.069,103.549 117.625,127.104 
			236.073,127.104 		"/>
		<rect x="30.461" y="100.437" style="fill:#FFFFFF;" width="12.792" height="6.223"/>
		<rect x="19.646" y="100.437" style="fill:#FFFFFF;" width="3.282" height="6.223"/>
		<rect x="52.888" y="100.437" style="fill:#FFFFFF;" width="8.597" height="6.223"/>
	</g>
	<g>
		<polygon style="fill:none;stroke:#C1FF44;stroke-miterlimit:10;" points="306.689,127.606 249.914,127.849 249.914,77.672 
			306.689,77.429 		"/>
		<polygon style="fill:none;stroke:#C1FF44;stroke-miterlimit:10;" points="363.465,127.364 306.689,127.606 306.689,77.429 
			363.465,77.187 		"/>
		<polygon style="fill:none;stroke:#C1FF44;stroke-miterlimit:10;" points="420.24,127.121 363.465,127.364 363.465,77.187 
			420.24,76.944 		"/>
		<polygon style="fill:none;stroke:#C1FF44;stroke-miterlimit:10;" points="477.015,126.879 420.24,127.121 420.24,76.944 
			477.015,76.702 		"/>
		<polygon style="fill:none;stroke:#C1FF44;stroke-miterlimit:10;" points="306.689,177.783 249.914,178.026 249.914,127.849 
			306.689,127.606 		"/>
		<polygon style="fill:none;stroke:#C1FF44;stroke-miterlimit:10;" points="363.465,177.541 306.689,177.783 306.689,127.606 
			363.465,127.364 		"/>
		<polygon style="fill:none;stroke:#C1FF44;stroke-miterlimit:10;" points="420.24,177.298 363.465,177.541 363.465,127.364 
			420.24,127.121 		"/>
		<polygon style="fill:none;stroke:#C1FF44;stroke-miterlimit:10;" points="477.015,177.056 420.24,177.298 420.24,127.121 
			477.015,126.879 		"/>
		<polygon style="fill:none;stroke:#C1FF44;stroke-miterlimit:10;" points="306.689,227.96 249.914,228.203 249.914,178.026 
			306.689,177.783 		"/>
		<polygon style="fill:none;stroke:#C1FF44;stroke-miterlimit:10;" points="363.465,227.718 306.689,227.96 306.689,177.783 
			363.465,177.541 		"/>
		<polygon style="fill:none;stroke:#C1FF44;stroke-miterlimit:10;" points="420.24,227.475 363.465,227.718 363.465,177.541 
			420.24,177.298 		"/>
		<polygon style="fill:none;stroke:#C1FF44;stroke-miterlimit:10;" points="477.015,227.233 420.24,227.475 420.24,177.298 
			477.015,177.056 		"/>
		<polygon style="fill:none;stroke:#C1FF44;stroke-miterlimit:10;" points="306.689,278.138 249.914,278.38 249.914,228.203 
			306.689,227.96 		"/>
		<polygon style="fill:none;stroke:#C1FF44;stroke-miterlimit:10;" points="363.465,277.895 306.689,278.138 306.689,227.96 
			363.465,227.718 		"/>
		<polygon style="fill:none;stroke:#C1FF44;stroke-miterlimit:10;" points="420.24,277.653 363.465,277.895 363.465,227.718 
			420.24,227.475 		"/>
		<polygon style="fill:none;stroke:#C1FF44;stroke-miterlimit:10;" points="477.015,277.41 420.24,277.653 420.24,227.475 
			477.015,227.233 		"/>
		<polygon style="fill:none;stroke:#C1FF44;stroke-miterlimit:10;" points="306.689,328.315 249.914,328.557 249.914,278.38 
			306.689,278.138 		"/>
		<polygon style="fill:none;stroke:#C1FF44;stroke-miterlimit:10;" points="363.465,328.072 306.689,328.315 306.689,278.138 
			363.465,277.895 		"/>
		<polygon style="fill:none;stroke:#C1FF44;stroke-miterlimit:10;" points="420.24,327.83 363.465,328.072 363.465,277.895 
			420.24,277.653 		"/>
		<polygon style="fill:none;stroke:#C1FF44;stroke-miterlimit:10;" points="477.015,327.587 420.24,327.83 420.24,277.653 
			477.015,277.41 		"/>
		<polygon style="fill:none;stroke:#C1FF44;stroke-miterlimit:10;" points="306.689,378.492 249.914,378.734 249.914,328.557 
			306.689,328.315 		"/>
		<polygon style="fill:none;stroke:#C1FF44;stroke-miterlimit:10;" points="363.465,378.249 306.689,378.492 306.689,328.315 
			363.465,328.072 		"/>
		<polygon style="fill:none;stroke:#C1FF44;stroke-miterlimit:10;" points="420.24,378.007 363.465,378.249 363.465,328.072 
			420.24,327.83 		"/>
		<polygon style="fill:none;stroke:#C1FF44;stroke-miterlimit:10;" points="477.015,377.764 420.24,378.007 420.24,327.83 
			477.015,327.587 		"/>
		<polygon style="fill:none;stroke:#C1FF44;stroke-miterlimit:10;" points="306.689,428.669 249.914,428.911 249.914,378.734 
			306.689,378.492 		"/>
		<polygon style="fill:none;stroke:#C1FF44;stroke-miterlimit:10;" points="363.465,428.427 306.689,428.669 306.689,378.492 
			363.465,378.249 		"/>
		<polygon style="fill:none;stroke:#C1FF44;stroke-miterlimit:10;" points="420.24,428.184 363.465,428.427 363.465,378.249 
			420.24,378.007 		"/>
		<polygon style="fill:none;stroke:#C1FF44;stroke-miterlimit:10;" points="477.015,427.942 420.24,428.184 420.24,378.007 
			477.015,377.764 		"/>
	</g>
	<rect x="244.648" y="192.155" style="fill:#FFFFFF;" width="5.737" height="4.564"/>
	<g>
		<polygon style="fill:#FE2B99;" points="339.551,321.942 339.551,330.885 350.781,330.885 350.781,342.228 366.952,342.228 
			366.952,356.428 382.674,356.428 382.674,372.708 396.599,372.708 396.599,389.901 414.567,389.901 414.567,401.565 
			430.289,401.565 430.289,418.301 440.621,418.301 440.621,430.473 447.808,430.473 447.808,448.477 250.385,448.477 
			250.385,321.942 		"/>
		<polygon style="fill:#FFFFFF;" points="327.722,308.211 327.722,316.363 335.841,316.363 335.841,335.128 322.757,335.128 
			322.757,347.806 313.019,347.806 313.019,369.614 298.819,369.614 298.819,388.379 284.681,388.379 284.681,400.044 
			269.404,400.044 269.404,410.187 262.029,410.187 262.029,418.301 250.382,418.301 250.382,308.211 		"/>
		<polygon style="fill:#FF9199;" points="290.148,265.777 290.148,296.939 322.757,319.406 250.314,395.994 249.766,265.777 		"/>
		<polygon style="fill:#EF656D;" points="290.148,265.777 290.148,296.939 275.997,296.939 275.997,292.526 270.291,292.526 
			270.291,265.901 		"/>
		<rect x="306.509" y="178.371" style="fill:#FF9199;" width="21.213" height="40.719"/>
		<polygon style="fill:#00152C;" points="250.314,103.549 300.19,103.549 300.19,118.015 309.217,118.015 309.217,124.954 
			320.952,124.954 320.952,143.307 331.784,143.307 331.784,178.371 319.598,178.371 319.598,206.564 306.509,206.564 
			306.509,145.971 293.42,145.971 293.42,131.91 249.763,131.91 		"/>
		<polygon style="fill:#FF9199;" points="249.763,131.91 293.42,131.91 293.42,145.971 306.509,145.971 306.509,247.792 
			290.148,265.777 249.766,265.777 		"/>
		<polygon style="fill:#00152C;" points="249.763,231.668 274.291,231.668 274.291,239.782 282.914,239.782 282.914,245.868 
			306.509,245.868 306.509,206.564 319.598,206.564 319.598,253.983 311.498,253.983 311.498,262.604 306.509,262.604 
			306.509,273.762 298.819,273.762 298.819,279.991 278.136,279.991 278.136,287.962 249.902,287.962 		"/>
		<polygon style="fill:#FF9199;" points="249.793,243.84 263.825,243.84 263.825,249.925 274.291,249.925 274.291,265.777 
			249.766,265.777 		"/>
		<polygon style="fill:#00152C;" points="249.763,174.446 298.819,174.446 298.819,202.838 291.972,202.838 291.972,212.65 
			260.021,212.65 260.021,200.597 255.231,200.597 255.231,187.926 249.763,187.926 		"/>
		<g>
			<rect x="278.136" y="197.684" style="fill:#FFFFFF;" width="4.778" height="4.778"/>
			<rect x="284.843" y="190.977" style="fill:#FFFFFF;" width="4.778" height="4.778"/>
		</g>
		<g>
			<rect x="327.722" y="422.803" style="fill:#C1FF44;" width="6.086" height="25.675"/>
			
				<rect x="344.268" y="406.257" transform="matrix(-1.836970e-16 1 -1 -1.836970e-16 767.0706 72.449)" style="fill:#C1FF44;" width="6.086" height="27.006"/>
			<rect x="360.814" y="422.803" style="fill:#C1FF44;" width="6.086" height="25.675"/>
		</g>
	</g>
	<g>
		<g>
			<path style="fill:#0A96FF;" d="M212.947,296.939c0,0-27.477,10.042-32.422,13.084c-4.945,3.043-9.002,11.411-9.002,11.411
				s-40.065,13.693-63.648,26.626c-14.989,8.22-55.534,100.417-55.534,100.417h198.044V296.939H212.947z"/>
			<path style="fill:#115AE5;" d="M144.643,395.994c-0.711-8.121-6.829-13.722-6.829-13.722
				c-11.14,13.671-36.787,66.205-36.787,66.205h40.319C144.779,433.263,145.354,404.115,144.643,395.994z"/>
			<path style="fill:none;stroke:#1E2C2C;stroke-miterlimit:10;" d="M120.807,364.796c0,0,21.047,16.751,23.836,31.198
				c2.789,14.446-3.297,52.483-3.297,52.483"/>
		</g>
		<g>
			<path style="fill:#FF9199;" d="M250.382,395.994c-16.479-24.345-58.477-77.111-58.477-77.111s13.807-9.48,19.076-16.442
				c5.25-6.961,2.615-44.9,2.615-44.9h36.171L250.382,395.994z"/>
			<path style="fill:#00152C;" d="M249.767,265.905c-7.481,32.21-38.786,36.536-38.786,36.536c5.25-6.961,2.615-44.9,2.615-44.9
				L249.767,265.905z"/>
		</g>
		<g>
			<g>
				<g>
					<path style="fill:#00152C;" d="M250.382,103.549v96.859c-1.096,0.539-1.73,0.809-1.73,0.809s-46.036-23.556-62.419-31.922
						c-14.711-7.519-32.441-12.173-32.825-34.325s13.422-28.672,28.998-28.672c15.595,0,18.307-22.153,36.536-20.845
						c18.23,1.288,30.825,19.211,30.825,19.211S249.978,104.241,250.382,103.549z"/>
				</g>
			</g>
			<g>
				<path style="fill:#FF9199;" d="M249.763,131.91c0,0-50.352-0.971-59.365,11.651c-9.013,12.622-12.393,47.576-7.886,70.879
					c4.507,23.303,21.406,51.46,67.251,51.46V131.91z"/>
				<path style="fill:#FFFFFF;" d="M188.857,211.28c-5.075-24.734-1.268-61.834,8.881-75.232c0.197-0.26,0.443-0.505,0.675-0.755
					c-3.598,1.483-6.443,3.302-8.013,5.551c-9.013,12.903-12.393,48.633-7.887,72.453c4.507,23.821,21.406,52.604,67.251,52.604
					v-0.916C209.232,259.825,193.412,233.484,188.857,211.28z"/>
			</g>
			<path style="fill:#00152C;" d="M236.073,128.304c0,0-15.281-46.33-48.745-19.085c-20.192,16.439-25.441,48.494-42.685,52.555
				c0,0,26.132,35.054,54.485,12.672c27.674-21.846,11.515-42.697,11.515-42.697S218.181,114.59,236.073,128.304z"/>
			<g>
				<g>
					<path style="fill:none;stroke:#FFFFFF;stroke-width:0.5;stroke-miterlimit:10;" d="M217.895,119.674
						c0,0-7.373-3.946-9.138,0.335c-1.765,4.281-0.126,7.883,1.629,11.884"/>
				</g>
			</g>
		</g>
		<g>
			<path style="fill:#FFFFFF;" d="M249.763,150.523c0,0-51.296,0.647-64.905,4.526c-13.609,3.879-19.541,11.638-20.588,21.66
				c-1.047,10.022-0.349,41.057,10.12,47.846s41.176,7.112,75.374,7.112V150.523z"/>
			<path style="fill:#00152C;" d="M249.763,157.714c0,0-46.751,0.532-59.154,3.724c-12.403,3.192-17.81,9.576-18.764,17.822
				c-0.954,8.246-0.318,33.781,9.223,39.367c9.541,5.586,37.527,5.852,68.695,5.852V157.714z"/>
			<path style="fill:none;stroke:#C1FF44;stroke-width:0.5;stroke-miterlimit:10;" d="M249.763,163.101
				c0,0-42.978,0.446-54.38,3.123c-11.402,2.677-16.373,8.03-17.25,14.945c-0.877,6.915-0.292,28.329,8.479,33.014
				c8.771,4.684,34.499,4.907,63.152,4.907"/>
			<g>
				<g>
					<g>
						<rect x="206.773" y="174.446" style="fill:#FE2B99;" width="28.931" height="7.851"/>
					</g>
					<g>
						<rect x="191.896" y="190.512" style="fill:#FE2B99;" width="14.465" height="7.851"/>
					</g>
					<g>
						<rect x="204.848" y="194.988" style="fill:#FE2B99;" width="8.952" height="7.851"/>
					</g>
				</g>
			</g>
			<rect x="224.647" y="192.155" style="fill:#FFFFFF;" width="15.595" height="4.564"/>
			<rect x="229.339" y="206.564" style="fill:#C1FF44;" width="15.944" height="6.086"/>
		</g>
	</g>
	<g>
		<polygon style="fill:#EE17E4;" points="389.81,213.589 407.819,195.579 407.819,257.438 389.81,257.438 		"/>
		<polygon style="fill:#EE17E4;" points="433.659,257.438 451.669,239.428 389.81,239.428 389.81,257.438 		"/>
		
			<rect x="392.502" y="214.812" transform="matrix(0.7071 -0.7071 0.7071 0.7071 -34.2423 364.9655)" style="fill:#EE17E4;" width="61.859" height="18.01"/>
	</g>
	<g>
		
			<ellipse transform="matrix(0.8881 -0.4596 0.4596 0.8881 -17.3808 181.4151)" style="fill:none;stroke:#FFFFFF;stroke-miterlimit:10;" cx="363.936" cy="126.408" rx="18.898" ry="18.898"/>
		<line style="fill:none;stroke:#EE17E4;stroke-miterlimit:10;" x1="385.145" y1="105.643" x2="342.727" y2="147.173"/>
	</g>
	<g>
		
			<ellipse transform="matrix(0.088 -0.9961 0.9961 0.088 155.0377 524.45)" style="fill:none;stroke:#FFFFFF;stroke-miterlimit:10;" cx="363.936" cy="177.555" rx="18.898" ry="18.898"/>
		<line style="fill:none;stroke:#EE17E4;stroke-miterlimit:10;" x1="385.145" y1="156.79" x2="342.727" y2="198.32"/>
	</g>
	<g>
		<polygon style="fill:#EE17E4;" points="19.646,19.319 68.684,19.319 68.684,29.695 30.022,69.45 19.646,69.45 		"/>
		<polygon style="fill:none;stroke:#FFFFFF;stroke-miterlimit:10;" points="29.489,29.161 49.508,29.161 29.712,48.958 		"/>
	</g>
	<g>
		<rect x="437.179" y="344.596" style="fill:#00152C;" width="24.473" height="6.437"/>
		<rect x="449.415" y="360.123" style="fill:#00152C;" width="12.236" height="6.437"/>
	</g>
	<g>
		<polyline style="fill:none;stroke:#FFFFFF;stroke-miterlimit:10;" points="190.6,321.942 200.864,321.942 240.242,426.945 
			229.978,426.945 		"/>
		<polyline style="fill:none;stroke:#FFFFFF;stroke-miterlimit:10;" points="29.727,321.942 19.463,321.942 58.841,426.945 
			69.105,426.945 		"/>
		
			<ellipse transform="matrix(0.6386 -0.7695 0.7695 0.6386 -236.6665 266.948)" style="fill:none;stroke:#C1FF44;stroke-width:6;stroke-miterlimit:10;" cx="165.892" cy="385.458" rx="22.252" ry="32.307"/>
		<polyline style="fill:none;stroke:#C1FF44;stroke-miterlimit:10;" points="144.824,361.531 116.506,340.936 86.412,340.936 		"/>
		<polygon style="fill:#C1FF44;" points="66.609,344.405 91.81,344.405 89.208,337.467 64.007,337.467 		"/>
		<g>
			<polygon style="fill:#FE2B99;" points="84.661,391.974 109.436,391.974 106.992,385.458 82.217,385.458 			"/>
			<polygon style="fill:#FE2B99;" points="90.555,407.692 102.943,407.692 100.499,401.177 88.112,401.177 			"/>
		</g>
		<polygon style="fill:none;stroke:#EE17E4;stroke-miterlimit:10;" points="162.669,333.82 154.452,333.82 161.229,340.936 
			168.007,348.052 169.446,340.936 170.886,333.82 		"/>
		<g>
			<g>
				<polygon style="fill:#EE17E4;" points="121.04,374.204 120.82,372.168 52.773,355.658 52.994,357.695 				"/>
				<polygon style="fill:#EE17E4;" points="59.696,374.157 58.392,372.12 114.117,355.706 115.422,357.743 				"/>
			</g>
		</g>
	</g>
	<g>
		<polygon style="fill:#00152C;" points="74.198,265.567 74.198,229.596 133.48,229.596 133.48,250.875 118.789,265.567 		"/>
		<polygon style="fill:none;stroke:#C1FF44;stroke-miterlimit:10;" points="98.577,260.249 98.577,234.915 124.716,234.915 
			124.716,249.902 114.368,260.249 		"/>
		<rect x="82.307" y="241.529" style="fill:#FFFFFF;" width="3.337" height="3.337"/>
		<rect x="82.307" y="251.233" style="fill:#FFFFFF;" width="3.337" height="3.337"/>
	</g>
	<g>
		<rect x="50.597" y="134.241" style="fill:#C1FF44;" width="36.174" height="16.111"/>
		<rect x="50.597" y="158.75" style="fill:#FFFFFF;" width="18.087" height="8.055"/>
		<rect x="163.107" y="257.834" style="fill:#FFFFFF;" width="16.872" height="1.66"/>
		<rect x="169.373" y="268.233" style="fill:#FFFFFF;" width="23.192" height="9.792"/>
	</g>
	<g>
		<polygon style="fill:#FFFFFF;" points="379.659,305.347 370.999,305.347 375.514,296.687 384.174,296.687 		"/>
		<polygon style="fill:#FFFFFF;" points="465.964,305.347 400.043,305.347 404.558,296.687 470.48,296.687 		"/>
		<line style="fill:none;stroke:#FFFFFF;stroke-miterlimit:10;" x1="424.774" y1="301.017" x2="377.586" y2="301.017"/>
	</g>
	<g>
		<g>
			
				<text transform="matrix(0.7006 0 -0.4573 0.8893 332.1132 62.9764)" style="fill:#FFFFFF; font-family:'RussoOne-Regular'; font-size:37.5039px;">METAVERSE</text>
		</g>
	</g>
	<g>
		<polygon style="fill:#EE17E4;" points="286.29,59.638 264.008,59.638 262.254,62.992 284.536,62.992 		"/>
		<polygon style="fill:#EE17E4;" points="299.896,59.638 294.426,59.638 292.672,62.992 298.143,62.992 		"/>
	</g>
	<g>
		
			<rect x="430.581" y="156.152" transform="matrix(-1 -1.224647e-16 1.224647e-16 -1 886.7986 320.5907)" style="fill:#C1FF44;" width="25.636" height="8.288"/>
		<line style="fill:none;stroke:#C1FF44;stroke-miterlimit:10;" x1="443.399" y1="160.295" x2="414.305" y2="160.295"/>
	</g>
	<g>
		
			<rect x="430.581" y="138.796" transform="matrix(-1 -1.224647e-16 1.224647e-16 -1 886.7986 285.8789)" style="fill:#C1FF44;" width="25.636" height="8.288"/>
		<line style="fill:none;stroke:#C1FF44;stroke-miterlimit:10;" x1="443.399" y1="142.939" x2="414.305" y2="142.939"/>
	</g>
	<g>
		<line style="fill:none;stroke:#C1FF44;stroke-miterlimit:10;" x1="249.763" y1="55.178" x2="249.763" y2="480.681"/>
		<rect x="244.296" y="19.319" style="fill:#C1FF44;" width="10.936" height="40.319"/>
	</g>
</g>
</svg>
