<?xml version="1.0" encoding="utf-8"?>
<!-- Generator: Adobe Illustrator 27.5.0, SVG Export Plug-In . SVG Version: 6.00 Build 0)  -->
<svg version="1.1" xmlns="http://www.w3.org/2000/svg" xmlns:xlink="http://www.w3.org/1999/xlink" x="0px" y="0px"
	 viewBox="0 0 500 500" style="enable-background:new 0 0 500 500;" xml:space="preserve">
<g id="BACKGROUND">
	<g>
		<rect y="-0.005" style="fill:#820BB7;" width="500" height="500"/>
	</g>
</g>
<g id="OBJECT">
	<g>
		
			<ellipse transform="matrix(0.7071 -0.7071 0.7071 0.7071 -99.1989 248.1963)" style="fill:#750CFF;" cx="250" cy="243.842" rx="203.939" ry="203.939"/>
	</g>
	<g>
		<g>
			<rect x="247.768" y="232.66" style="fill:#C1FF44;" width="173.643" height="30.23"/>
			<rect x="247.768" y="451.647" style="fill:#C1FF44;" width="173.643" height="30.23"/>
			<rect x="421.411" y="262.89" style="fill:#C1FF44;" width="30.23" height="188.758"/>
		</g>
	</g>
	<g>
		<g>
			<polygon style="fill:#00152C;" points="30.525,468.343 48.402,486.22 30.852,486.22 30.525,485.893 			"/>
			<polygon style="fill:#00152C;" points="30.525,414.716 102.029,486.22 84.478,486.22 30.525,432.266 			"/>
			<polygon style="fill:#00152C;" points="31.828,362.388 155.655,486.22 138.105,486.22 30.525,378.64 30.525,363.691 			"/>
			<polygon style="fill:#00152C;" points="58.641,335.574 209.282,486.22 191.732,486.22 49.866,344.35 			"/>
			<polygon style="fill:#00152C;" points="85.454,308.761 245.363,468.665 245.363,486.22 76.679,317.536 			"/>
			<polygon style="fill:#00152C;" points="112.268,281.948 245.363,415.039 245.363,432.589 103.493,290.723 			"/>
			<polygon style="fill:#00152C;" points="139.085,255.135 245.363,361.416 245.363,378.962 130.31,263.91 			"/>
		</g>
	</g>
	<g>
		<path style="fill:#EE17E4;" d="M124.581,213.188l-21.799-19.26c27.586-31.222,63.705-61.817,106.475-84.855
			C254.043,84.95,337.834,57.916,329.14,60.756l6.397,28.377c-36.02,8.119-74.658,23.725-111.737,45.132
			C184.419,157.002,150.11,184.293,124.581,213.188z"/>
	</g>
	<g>
		<g>
			<g>
				<line style="fill:none;stroke:#FFFFFF;stroke-miterlimit:10;" x1="370.174" y1="226.108" x2="368.009" y2="224.858"/>
				
					<line style="fill:none;stroke:#FFFFFF;stroke-miterlimit:10;stroke-dasharray:4.9543,4.9543;" x1="363.719" y1="222.381" x2="254.31" y2="159.214"/>
				<polyline style="fill:none;stroke:#FFFFFF;stroke-miterlimit:10;" points="252.165,157.975 250,156.725 247.835,157.975 				"/>
				
					<line style="fill:none;stroke:#FFFFFF;stroke-miterlimit:10;stroke-dasharray:4.9543,4.9543;" x1="243.544" y1="160.452" x2="134.136" y2="223.619"/>
				<line style="fill:none;stroke:#FFFFFF;stroke-miterlimit:10;" x1="131.991" y1="224.858" x2="129.826" y2="226.108"/>
			</g>
		</g>
		<g>
			<g>
				<line style="fill:none;stroke:#FFFFFF;stroke-miterlimit:10;" x1="250" y1="156.725" x2="250" y2="154.225"/>
				
					<line style="fill:none;stroke:#FFFFFF;stroke-miterlimit:10;stroke-dasharray:4.9543,4.9543;" x1="250" y1="149.271" x2="250" y2="22.937"/>
				<line style="fill:none;stroke:#FFFFFF;stroke-miterlimit:10;" x1="250" y1="20.46" x2="250" y2="17.96"/>
			</g>
		</g>
	</g>
	<g>
		<g>
			<g>
				
					<text transform="matrix(0.6695 -0.0774 -0.4349 0.9005 165.432 182.7568)" style="fill:#C1FF44; font-family:'RussoOne-Regular'; font-size:90.6025px;">META</text>
			</g>
		</g>
	</g>
	<g>
		<polygon style="fill:none;stroke:#FFFFFF;stroke-miterlimit:10;" points="370.174,226.108 370.174,87.343 250,17.96 
			129.826,87.343 129.826,226.108 250,295.491 		"/>
		<rect x="113.327" y="114.005" style="fill:#FFFFFF;" width="28.087" height="7.072"/>
		<polyline style="fill:none;stroke:#FFFFFF;stroke-miterlimit:10;" points="129.826,87.314 250,156.697 370.174,87.314 		"/>
		<line style="fill:none;stroke:#FFFFFF;stroke-miterlimit:10;" x1="250" y1="295.491" x2="250" y2="156.725"/>
	</g>
	<g>
		<path style="fill:#FE2B99;" d="M333.401,434.86l-121.621-9.352c0,0-29.587,13.133-38.129,38.965
			C165.109,490.306,163.08,500,163.08,500h176.572C339.652,500,346.658,471.337,333.401,434.86z"/>
		<path style="fill:#FFFFFF;" d="M211.151,357.521c0,0-2.784,48.464-7.157,61.688c-4.373,13.224,44.869,32.995,71.16,33.027
			c26.291,0.033,62.437-17.159,64.2-22.448c1.763-5.29-5.064-43.364-0.328-85.818L211.151,357.521z"/>
		<path style="fill:#00152C;" d="M211.151,357.521c-5.857-9.607,120.546-30.174,127.875-13.551
			C346.354,360.593,228.626,386.187,211.151,357.521z"/>
		<path style="fill:#00152C;" d="M203.993,236.145c0,0,3.121-4.04,5.545-5.259c2.424-1.22,8.155,1.786,8.375,12.956
			C217.913,243.842,206.162,242.845,203.993,236.145z"/>
		<path style="fill:#FF9199;" d="M318.849,348.243c-2.173,2.429-4.992,4.513-8.279,6.273c-23.678,12.769-71.278,9.594-71.278,9.594
			s0.435-5.192,0.735-11.432c0.412-8.725,0.546-19.499-1.17-21.037c-15.466-13.928-14.117-41.572-14.117-41.572
			c-0.301-3.532-3.042-17.326-9.683-25.36c-7.02-8.479-14.106-17.159-13.527-21.561c0.59-4.412,2.351-8.825,5.593-8.524
			c3.231,0.29,15.566,9.995,18.797,14.106c3.243,4.112,10.496,6.418,10.496,6.418c1.315-1.404,3.098-2.641,4.602-5.638
			c0,0-6.273-25.137-14.998-28.246c-2.797-1.003-16.034-2.808-23.31-4.234c-5.995-1.181-10.652-10.073-5.07-11.833
			c5.582-1.76,25.338-3.32,33.572-0.223c13.237,4.992,26.619,29.739,27.031,30.508c-0.089-0.824-2.407-20.045-5.582-25.505
			c-3.231-5.582-19.276-11.488-23.433-14.073c-8.156-5.07-8.591-14.429,0.223-13.85c8.814,0.59,33.204,10.875,37.617,15.287
			c4.401,4.401,11.755,29.349,11.755,29.349s0.579-19.689,0.579-22.04c0-2.351-17.917-30.564-18.508-36.146
			c-0.591-5.582,2.641-15.867,9.103-13.817c6.474,2.061,26.452,43.199,26.452,43.199s4.858-12.635,12.714-10.875
			c7.855,1.772,5.816,32.592,6.028,39.054c0.223,6.463,1.682,21.739,3.443,25.862c1.772,4.111-8.479,50.832-7.309,62.888
			c0.345,3.476,1.304,8.39,2.429,13.382C315.974,338.07,318.849,348.243,318.849,348.243z"/>
		<path style="fill:#EF656D;" d="M318.849,348.243c-2.173,2.429-4.992,4.513-8.279,6.273c-23.678,12.769-71.278,9.594-71.278,9.594
			s0.435-5.192,0.735-11.432c15.967-4.457,48.904-14.106,73.729-24.48C315.974,338.07,318.849,348.243,318.849,348.243z"/>
		<path style="fill:#FFFFFF;" d="M318.844,348.245c-2.173,2.429-4.992,4.513-8.279,6.273c-2.841-14.307-6.296-33.773-5.772-41.461
			c0.88-12.78,9.694-50.252,9.259-57.383c-0.446-7.131-2.641-30.341-2.206-42.675c0.446-12.346-2.685-25.984-2.685-25.984
			c7.855,1.772,5.816,32.592,6.028,39.054c0.223,6.463,1.683,21.739,3.443,25.862c1.772,4.112-8.479,50.832-7.309,62.888
			C312.337,325.18,318.844,348.245,318.844,348.245z"/>
		<path style="fill:none;stroke:#1E2C2C;stroke-miterlimit:10;" d="M318.636,251.926c-4.849-23.834-11.902-20.926-19.836-50.178"/>
	</g>
	<g>
		<path style="fill:none;stroke:#0A96FF;stroke-miterlimit:10;" d="M322.811,316.438c38.691,6.994,65.223,21.353,65.223,37.931
			c0,23.453-53.102,42.465-118.607,42.465c-65.505,0-118.607-19.012-118.607-42.465c0-18.273,32.238-33.851,77.461-39.84"/>
		<path style="fill:none;stroke:#0A96FF;stroke-miterlimit:10;" d="M339.653,418.981c26.453,7.45,43.198,18.222,42.919,29.829
			c-0.494,20.505-53.938,35.85-119.371,34.274s-118.076-19.477-117.582-39.983c0.331-13.742,24.445-25.167,60.011-30.734"/>
	</g>
	<g>
		<g>
			<rect x="98.345" y="253.914" style="fill:#C1FF44;" width="7.361" height="7.361"/>
			<rect x="109.682" y="242.577" style="fill:#C1FF44;" width="7.361" height="7.361"/>
		</g>
	</g>
	<g>
		<g>
			<polygon style="fill:#C1FF44;" points="93.406,51.594 118.22,26.78 131.992,26.78 107.271,51.502 			"/>
			<polygon style="fill:#C1FF44;" points="84.798,38.089 96.106,26.78 102.382,26.78 91.117,38.046 			"/>
		</g>
	</g>
	<g>
		<polyline style="fill:none;stroke:#FFFFFF;stroke-linejoin:round;stroke-miterlimit:10;" points="349.893,170.063 
			376.037,170.063 416.057,130.043 439.95,130.043 		"/>
		<rect x="437.238" y="127.331" style="fill:#FFFFFF;" width="5.423" height="5.423"/>
	</g>
	<g>
		<path style="fill:#EE17E4;" d="M301.671,174.822c0,1.884-1.528,3.638-3.412,3.916c-1.884,0.279-3.412-1.023-3.412-2.907
			c0-1.884,1.528-3.638,3.412-3.916C300.143,171.636,301.671,172.937,301.671,174.822z"/>
		<path style="fill:#FFFFFF;" d="M318.604,172.318c0,1.884-1.527,3.638-3.412,3.916c-1.884,0.279-3.412-1.023-3.412-2.908
			c0-1.884,1.527-3.638,3.412-3.916C317.077,169.133,318.604,170.434,318.604,172.318z"/>
		<path style="fill:#00152C;" d="M335.538,169.815c0,1.884-1.527,3.638-3.412,3.916c-1.884,0.278-3.412-1.023-3.412-2.908
			c0-1.884,1.527-3.638,3.412-3.916C334.01,166.629,335.538,167.931,335.538,169.815z"/>
	</g>
	<g>
		<g>
			<rect x="369.681" y="389.532" style="fill:#EE17E4;" width="24.874" height="11.75"/>
			<rect x="388.62" y="400.852" style="fill:#EE17E4;" width="17.767" height="5.823"/>
		</g>
		<rect x="406.388" y="419.166" style="fill:#FFFFFF;" width="36.274" height="12.856"/>
		<rect x="346.453" y="291.574" style="fill:#00152C;" width="35.665" height="13.356"/>
	</g>
	<g>
		<path style="fill:none;stroke:#FFFFFF;stroke-miterlimit:10;" d="M354.651,70.8c50.658-7.298,90.813,2.06,106.54,29.299
			c13.076,22.648,7.002,53.74-13.607,86.696"/>
		<path style="fill:none;stroke:#FFFFFF;stroke-miterlimit:10;" d="M155.92,354.379c-38.126,1.059-67.494-9.252-80.403-31.611
			c-15.665-27.133-3.846-66.385,27.526-106.444"/>
		<path style="fill:#EE17E4;" d="M178.877,367.168l-3.582-28.867c42.33-5.253,91.202-22.903,137.613-49.698
			c46.161-26.652,85.749-59.976,111.473-93.835l23.163,17.596c-28.009,36.867-70.658,72.888-120.091,101.429
			C277.747,342.491,224.982,361.446,178.877,367.168z"/>
	</g>
	<g>
		<polyline style="fill:none;stroke:#C1FF44;stroke-miterlimit:10;" points="24.915,104.005 11.849,104.005 11.849,299.98 
			27.134,299.98 		"/>
		<polyline style="fill:none;stroke:#C1FF44;stroke-miterlimit:10;" points="475.085,104.005 488.151,104.005 488.151,299.98 
			472.866,299.98 		"/>
	</g>
	<g>
		<rect x="29.028" y="144.004" style="fill:#750CFF;" width="20.87" height="6.707"/>
		<rect x="29.028" y="158.133" style="fill:#750CFF;" width="20.87" height="6.707"/>
	</g>
	<g>
		<circle style="fill:#FFFFFF;" cx="437.962" cy="168.045" r="2.021"/>
		<circle style="fill:#FFFFFF;" cx="447.361" cy="168.045" r="2.021"/>
	</g>
	<g>
		<g>
			<polygon style="fill:#FFFFFF;" points="468.084,229.783 475.372,229.783 471.728,234.833 468.084,239.882 464.44,234.833 
				460.796,229.783 			"/>
			<polygon style="fill:#C1FF44;" points="468.084,245.036 475.372,245.036 471.728,250.085 468.084,255.135 464.44,250.085 
				460.796,245.036 			"/>
		</g>
		<polygon style="fill:#00152C;" points="402.157,90.927 402.157,98.215 397.107,94.572 392.058,90.927 397.107,87.283 
			402.157,83.639 		"/>
	</g>
	<g>
		<g>
			
				<rect x="44.212" y="81.403" transform="matrix(0.7071 -0.7071 0.7071 0.7071 -40.9068 66.0207)" style="fill:#C1FF44;" width="30.066" height="1.978"/>
			
				<rect x="58.256" y="67.359" transform="matrix(0.7071 -0.7071 0.7071 0.7071 -40.9074 66.0242)" style="fill:#C1FF44;" width="1.978" height="30.066"/>
		</g>
	</g>
	<g>
		
			<ellipse transform="matrix(0.9998 -0.0218 0.0218 0.9998 -7.1463 9.9104)" style="fill:none;stroke:#FFFFFF;stroke-miterlimit:10;" cx="451.311" cy="332.966" rx="19.206" ry="19.206"/>
		<line style="fill:none;stroke:#EE17E4;stroke-miterlimit:10;" x1="472.866" y1="311.863" x2="429.757" y2="354.07"/>
	</g>
	<g>
		
			<ellipse transform="matrix(0.3784 -0.9256 0.9256 0.3784 -83.9173 662.4638)" style="fill:none;stroke:#FFFFFF;stroke-miterlimit:10;" cx="451.311" cy="393.717" rx="19.206" ry="19.206"/>
		<line style="fill:none;stroke:#EE17E4;stroke-miterlimit:10;" x1="472.866" y1="372.614" x2="429.757" y2="414.82"/>
	</g>
</g>
</svg>
