<?xml version="1.0" encoding="utf-8"?>
<!-- Generator: Adobe Illustrator 27.5.0, SVG Export Plug-In . SVG Version: 6.00 Build 0)  -->
<svg version="1.1" xmlns="http://www.w3.org/2000/svg" xmlns:xlink="http://www.w3.org/1999/xlink" x="0px" y="0px"
	 viewBox="0 0 750 500" style="enable-background:new 0 0 750 500;" xml:space="preserve">
<g id="BACKGROUND">
	<g>
		<rect y="-0.005" style="fill:#820BB7;" width="750" height="500"/>
	</g>
</g>
<g id="OBJECT">
	<g>
		<circle style="fill:#750CFF;" cx="375" cy="250" r="203.869"/>
	</g>
	<g>
		<g>
			<g>
				<polygon style="fill:#00152C;" points="588.078,77.511 414.953,252.038 471.787,252.038 644.913,77.511 				"/>
			</g>
			<g>
				<polygon style="fill:#00152C;" points="620.712,129.68 447.587,304.207 504.421,304.207 620.712,186.975 				"/>
			</g>
			<g>
				<polygon style="fill:#00152C;" points="620.712,213.704 447.587,388.231 471.787,388.231 620.712,238.101 				"/>
			</g>
			<g>
				<polygon style="fill:#00152C;" points="200.202,195.262 354.222,41.241 527.836,41.241 502.96,66.118 420.015,66.118 
					200.202,285.931 				"/>
			</g>
			<g>
				<polygon style="fill:#00152C;" points="513.438,55.664 488.388,80.713 505.216,80.713 530.266,55.664 				"/>
			</g>
		</g>
	</g>
	<path style="fill:none;stroke:#C1FF44;stroke-miterlimit:10;" d="M375.01,159.318c-42.194,3.025-70.894,14.343-74.359,32.486"/>
	<g>
		<g>
			<g>
				<g>
					<path style="fill:#00152C;" d="M450.95,356.565c0,0-0.04,46.28-7.43,62.75c-1.21,2.7-7.77,13.79-16.23,27.78
						c-16.69,4.42-34.21,6.77-52.29,6.77c-22.31,0-43.77-3.58-63.86-10.2l26.69-36.75l-51.28,26.82
						c-33.86-16.33-62.53-41.76-82.82-73.1l105.29-45.05L450.95,356.565z"/>
				</g>
			</g>
			<g>
				<path style="fill:none;stroke:#FFFFFF;stroke-miterlimit:10;" d="M437.991,350.51c0,0-0.649,41.711-5.997,56.403
					c-5.348,14.692-19.714,43.552-19.714,43.552"/>
				<path style="fill:none;stroke:#FFFFFF;stroke-miterlimit:10;" d="M268.939,424.137c0,0,57.751-29.347,83.069-39.412"/>
				<path style="fill:none;stroke:#FFFFFF;stroke-miterlimit:10;" d="M337.83,406.915c0,0,11.014-14.498,14.178-22.19
					c3.165-7.692-8.912-37.108-11.973-41.389c-3.06-4.281-1.687,15.699,0,21.533"/>
			</g>
		</g>
		<g>
			<path style="fill:#FFFFFF;" d="M316.95,296.607c0,0-10.858,11.536-15.476,18c-4.617,6.464,120.788,46.37,152.27,47.294
				c0,0-0.065-12.388,6.368-24.663C460.113,337.237,327.108,295.953,316.95,296.607z"/>
			<path style="fill:#FE2B99;" d="M578.988,331.9c-0.099,0.595-0.204,1.191-0.315,1.786c-3.968,21.323-15.237,41.374-37.248,65.375
				c-16.526,18.02-33.239,17.542-33.239,17.542l-41.403-24.929c0,0,74.561-87.025,24.077-131.965c0,0,1.54,34.126-5.847,53.518
				c-7.388,19.392-24.9,24.013-24.9,24.013s-135.775-28.629-143.163-40.633c-5.234-8.508-9.232-10.428,23.085-46.923
				c0,0-24.352,11.648-53.424,13.959c-8.905,0.706-18.254,0.537-27.485-1.109c-8.415-1.5-17.787-5.176-27.293-10.312
				c-31.576-17.028-64.693-50.086-69.665-72.798l38.094-29.779c0,0,16.386-1.471,23.774,6.308
				c7.388,7.773,35.719,35.416,48.021,39.174c19.963,6.098,67.056-16.987,92.913-30.841c25.851-13.848,47.478-17.314,59.721-15.371
				l29.055,4.616c0,0,97.348,26.943,121.472,121.793c0.216,0.835,0.426,1.675,0.625,2.521c1.43,5.981,2.562,12.231,3.361,18.755
				C580.756,309.241,580.85,320.76,578.988,331.9z"/>
			<path style="fill:#FFFFFF;" d="M414.104,148.416c0,0,2.844,18.026,22.256,19.873c19.412,1.847,24.519-12.247,24.519-12.247
				l-7.134-2.51l-29.056-4.617C424.688,148.914,418.261,147.923,414.104,148.416z"/>
			<path style="fill:#FFFFFF;" d="M431.652,153.166c0,0-11.278,42.903-30.67,78.224l15.732,6.264c0,0,24.958-54.225,25.736-81.225
				L431.652,153.166z"/>
			<polygon style="fill:#FFFFFF;" points="376.742,215.999 455.436,239.546 448.031,256.168 369.124,229.158 			"/>
			<path style="fill:#FFFFFF;" d="M466.782,391.673c0,0,28.783,4.617,41.402,24.932c0,0-16.193,24.253-23.626,28.264
				c-6.233,3.364-41.554-22.954-37.943-28.263C451.251,409.791,460.27,399.293,466.782,391.673z"/>
			<path style="fill:#00152C;" d="M448.082,416.606c3.482-3.676,39.707,22.169,36.937,26.094
				C482.042,446.917,443.927,420.993,448.082,416.606z"/>
			<path style="fill:#FFFFFF;" d="M200.259,149.645c0,0-14.418,25.337-37.868,30.029c0,0-17.034-23.67-18.184-32.037
				c-0.964-7.017,36.068-30.866,39.774-25.622C188.738,128.746,195.406,140.874,200.259,149.645z"/>
			<path style="fill:#00152C;" d="M183.467,123.389c2.222,4.55-34.686,29.411-37.39,25.441
				C143.172,144.563,180.816,117.959,183.467,123.389z"/>
			<path style="fill:none;stroke:#00152C;stroke-miterlimit:10;" d="M340.036,249.685c0,0,27.787-34.639,34.398-64.159
				c5.689-25.407-15.929,11.77-19.623,22.393"/>
			<path style="fill:none;stroke:#00152C;stroke-miterlimit:10;" d="M467.007,182.294c0,0-8.567,16.468-1.18,39.553
				c7.387,23.086,14.877,29.242,25.035,37.86"/>
			<path style="fill:none;stroke:#FFFFFF;stroke-miterlimit:10;" d="M506.252,283.804c0,0,1.764,9.708,1.932,16.843
				c0.08,3.414,21.77,16.006,22.078,22.778s-16.622-9.85-20.315-12.005c-3.694-2.155,0,13.616,0,13.616"/>
			<path style="fill:#C1FF44;" d="M578.988,331.9c-0.099,0.595-0.204,1.191-0.315,1.786c-9.29-3.326-21.078-10.872-21.72-27.783
				c-0.624-16.363,9.611-25.665,18.265-30.578c0.216,0.835,0.426,1.675,0.625,2.521c1.43,5.981,2.562,12.231,3.361,18.755
				C580.756,309.241,580.85,320.76,578.988,331.9z"/>
			<path style="fill:#C1FF44;" d="M286.611,263.642c-8.905,0.706-18.254,0.537-27.485-1.109c-8.415-1.5-17.787-5.176-27.293-10.312
				c6.431-7.563,18.055-16.468,34.541-10.562C278.627,246.053,284.183,255.139,286.611,263.642z"/>
			
				<rect x="525.183" y="200.568" transform="matrix(0.7733 -0.6341 0.6341 0.7733 -17.2053 383.881)" style="fill:#FFFFFF;" width="6.002" height="30.861"/>
			<line style="fill:none;stroke:#00152C;stroke-miterlimit:10;" x1="520.14" y1="206.767" x2="536.36" y2="225.942"/>
			<path style="fill:none;stroke:#FFFFFF;stroke-miterlimit:10;" d="M272.057,195.127c0,0,3.032,0.249,5.802,3.019
				c2.77,2.77,19.084,18.468,22.162,17.853c3.078-0.616-3.05-5.838-9.85-12.928"/>
			<path style="fill:none;stroke:#FFFFFF;stroke-miterlimit:10;" d="M446.356,337.891l9.079-41.292
				c-9.955-10.819-14.369-29.35-14.369-29.35l-65.685-22.132c0,0-20.171,15.369-35.346,18.918c0,0-13.275,21.648-19.796,35.285"/>
			<path style="fill:none;stroke:#1E2C2C;stroke-miterlimit:10;" d="M127.956,124.634c0,0,2.439,4.198,4.232,5.948
				c1.793,1.75,3.724-2.996,2.8-7.921"/>
		</g>
		<g>
			<path style="fill:#00152C;" d="M422.262,105.595c0,0-10.781,1.632-15.009-7.91c0,0,6.23,0,8.85-1.539
				c0,0-4.079-6.772-1.345-14.467c0,0,7.263,8.301,11.572,8.609c0,0-0.22-2.453,0.088-4.915c0,0,8.825,8.016,19.187,8.317
				c10.362,0.301,13.133,2.38,12.825,7.035s-2.155,28.664-9.542,29.28c-7.387,0.616-37.21-19.098-37.21-19.098
				S419.338,111.35,422.262,105.595z"/>
			<path style="fill:#FF9199;" d="M429.066,122.086l-6.803,26.08c0,0,17.021,13.39,29.056,4.617v-33.659L429.066,122.086z"/>
			<path style="fill:#00152C;" d="M422.262,148.165c0,0,28.159,2.729,22.621-28.185l-15.818,2.106L422.262,148.165z"/>
			<path style="fill:#FF9199;" d="M450.039,121.665c-1.272,10.148-16.76,16.444-25.181,15.814h-0.017
				c-2.749-0.204-4.738-1.155-5.234-2.953c-1.576-5.696,4.149-21.399,6.752-28.034c0.729-1.879,1.214-3.029,1.214-3.029
				c3.851-3.635,21.044-1.286,22.619,0.278C451.767,105.306,451.737,108.196,450.039,121.665z"/>
			<path style="fill:#FFFFFF;" d="M424.841,137.479c-2.749-0.204-4.738-1.155-5.234-2.953c-1.576-5.696,4.149-21.399,6.752-28.034
				l1.447,0.099c0,0-6.927,21.376-6.699,25.875C421.305,136.341,424.076,137.292,424.841,137.479z"/>
			<path style="fill:#FF9199;" d="M449.344,113.608c0,0,3.242-4.54,6.187-3.964c2.945,0.577,1.222,8.905-0.372,11.395
				c-1.45,2.265-5.462,1.577-6.058-0.187C448.506,119.09,449.344,113.608,449.344,113.608z"/>
			<path style="fill:#00152C;" d="M443.912,126.22l-18.448-1.281c-3.046-0.211-5.344-2.852-5.133-5.898l0.513-7.393
				c0.211-3.046,2.852-5.344,5.898-5.133l18.447,1.281c3.046,0.211,5.344,2.852,5.133,5.899l-0.513,7.393
				C449.599,124.134,446.958,126.432,443.912,126.22z"/>
			<path style="fill:#FFFFFF;" d="M436.387,125.698l-18.447-1.281c-3.046-0.211-5.344-2.852-5.133-5.898l0.513-7.393
				c0.211-3.046,2.852-5.344,5.898-5.133l18.447,1.281c3.046,0.211,5.344,2.852,5.133,5.898l-0.513,7.393
				C442.074,123.612,439.433,125.91,436.387,125.698z"/>
			<path style="fill:#00152C;" d="M430.847,125.313l-18.447-1.281c-3.046-0.211-5.344-2.852-5.133-5.898l0.513-7.393
				c0.212-3.046,2.852-5.344,5.898-5.133l18.448,1.281c3.046,0.211,5.344,2.852,5.133,5.898l-0.513,7.393
				C436.534,123.227,433.893,125.525,430.847,125.313z"/>
			<path style="fill:#FFFFFF;" d="M414.823,124.201c-3.046-0.211-5.344-2.852-5.133-5.898l0.513-7.393
				c0.211-3.046,2.852-5.344,5.898-5.133l-2.424-0.168c-3.046-0.211-5.687,2.086-5.899,5.133l-0.513,7.393
				c-0.211,3.046,2.087,5.687,5.133,5.898L414.823,124.201z"/>
			<path style="fill:none;stroke:#00152C;stroke-width:0.5;stroke-miterlimit:10;" d="M437.666,107.274c0,0,2.372,3.017,1.833,9.094
				c-0.616,6.942-3.113,9.33-3.113,9.33"/>
			<path style="fill:#00152C;" d="M439.176,110.907l-0.984,0.726c0,0,0.449,5.136-0.472,9.301l0.626,1.152
				C438.346,122.086,440.391,116.357,439.176,110.907z"/>
			<path style="fill:#311457;" d="M454.501,105.849l4.54,1.933c0,0-0.253,3.54-0.588,4.54l-5.876-3.237L454.501,105.849z"/>
			<path style="fill:#EAE5F9;" d="M456.662,106.164l-1.733,4.744c0,0-14.093-8.356-22.805-4.021l-11.601-0.805l-1.301-0.087
				c0,0,3.005-4.692,4.348-6.192c0.239-0.268,0.969-0.531,2.095-0.729h0.006C430.898,98.146,444.6,98.566,456.662,106.164z"/>
			<polygon style="fill:#FFFFFF;" points="423.993,106.917 429.226,107.344 423.126,124.005 417.916,123.643 			"/>
			<path style="fill:#C1FF44;" d="M444.836,118.802l-0.4-0.028c-0.186-0.013-0.327-0.174-0.314-0.361l0.198-2.857
				c0.013-0.186,0.174-0.327,0.361-0.314l0.4,0.028c0.186,0.013,0.327,0.174,0.314,0.361l-0.198,2.857
				C445.184,118.675,445.022,118.815,444.836,118.802z"/>
			<path style="fill:none;stroke:#1E2C2C;stroke-width:0.5;stroke-miterlimit:10;" d="M455.809,113.237
				c-0.169-0.666-1.556-1.847-1.697-1.803c-0.096,0.03-1.893,4.15-2.275,6.201c0.533,0.107,1.96-0.318,2.703-0.865
				c0.126,0.939-0.864,3.69-1.486,3.477c-0.356-0.122-1.161-0.518-1.67-1.154"/>
			<path style="fill:#FFFFFF;" d="M425.669,99.074c-2.13,2.066-5.106,6.939-5.106,6.939l-0.041,0.07l-1.301-0.087
				c0,0,3.005-4.692,4.348-6.192c0.239-0.268,0.969-0.531,2.095-0.729H425.669z"/>
			<g>
				<path style="fill:#311457;" d="M454.917,107.607c-0.228,0.797-0.927,1.295-1.56,1.114c-0.633-0.182-0.961-0.975-0.733-1.771
					c0.228-0.797,0.927-1.295,1.56-1.114C454.818,106.017,455.146,106.81,454.917,107.607z"/>
				<path style="fill:#EE17E4;" d="M455.417,107.75c-0.228,0.797-0.927,1.295-1.56,1.114c-0.633-0.182-0.961-0.975-0.733-1.771
					c0.228-0.797,0.927-1.295,1.56-1.114C455.317,106.16,455.645,106.953,455.417,107.75z"/>
				<path style="fill:#FFFFFF;" d="M454.529,106.521c-0.031-0.009-0.062-0.011-0.094-0.014c0.336,0.157,0.502,0.61,0.371,1.069
					c-0.131,0.459-0.512,0.755-0.881,0.71c0.029,0.013,0.056,0.028,0.087,0.037c0.395,0.113,0.832-0.198,0.974-0.695
					C455.129,107.129,454.924,106.634,454.529,106.521z"/>
			</g>
		</g>
		<g>
			<path style="fill:#00152C;" d="M436.998,439.334c0,0-11.001,13.592-11.001,19.749c0,6.156,8.767,2.462,11.001-1.539
				C439.233,453.542,436.998,439.334,436.998,439.334z"/>
			<path style="fill:#FF9199;" d="M457.097,419.313c0,0-19.405,16.359-20.873,21.643c-1.468,5.284-5.382,26.972-2.194,29.771
				c3.188,2.798,5.384-3.006,5.384-3.006s-1.517,8.21,2.227,7.729c3.671-0.471,6.376-8.721,6.376-8.721s0.474,5.824,3.231,6.144
				c4.602,0.534,6.18-5.068,6.18-5.068s4.784,3.497,5.317-0.017c0.533-3.514,1.242-13.286,3.583-14.776
				c17.849-11.365,15.053-16.1,15.053-16.1S472.168,426.917,457.097,419.313z"/>
		</g>
		<g>
			<path style="fill:#FF9199;" d="M138.268,135.045c8.11,9.912,16.752,11.294,16.752,11.294s13.324-6.677,25.104-17.611
				c0,0-14.77-21.602-19.853-23.662c-5.082-2.06-14.1-12.376-30.776-14.653c-4.509-0.616-6.505,4.136,0.728,7.368
				c5.31,2.372,10.661,8.946,10.661,8.946s-9.342-2.98-10.465-0.308c-1.434,3.412,0.972,7.514,0.972,7.514s-3.906-0.28-4.538,2.422
				c-1.055,4.511,1.104,8.279,1.104,8.279s-2.932,1.095-2.924,4.871c0.004,2.114,9.052,12.005,12.221,11.697
				C140.422,140.894,138.268,135.045,138.268,135.045z"/>
			<path style="fill:none;stroke:#00152C;stroke-miterlimit:10;" d="M160.271,105.066c0,0-9.999-4.341-6.613,3.969
				c2.727,6.693,3.893,3.135,4.925,12.233c1.032,9.098,5.387,11.469,5.387,11.469"/>
			<path style="fill:none;stroke:#00152C;stroke-miterlimit:10;" d="M131.39,113.933c0,0,3.03,10.031,5.492,10.647
				c2.463,0.616,4.079-4.568,1.924-11.158c0,0,2.309-0.231,4.309,0"/>
			<path style="fill:none;stroke:#00152C;stroke-miterlimit:10;" d="M127.956,124.634c0,0,4.314,9.081,7.271,8.103
				c2.957-0.979,2.925-4.456,1.655-8.157"/>
		</g>
	</g>
	<g>
		<g>
			
				<ellipse transform="matrix(0.6883 -0.7254 0.7254 0.6883 -21.9985 110.6357)" style="fill:none;stroke:#C1FF44;stroke-miterlimit:10;" cx="117.753" cy="80.919" rx="48.169" ry="25.932"/>
			<path style="fill:none;stroke:#C1FF44;stroke-miterlimit:10;" d="M221.46,153.809c9.57-3.245,18.154-2.751,23.424,2.25
				c10.389,9.858,3.966,33.493-14.346,52.791c-18.312,19.297-41.578,26.949-51.967,17.091c-5.068-4.809-6.135-12.896-3.773-22.158"
				/>
			<line style="fill:none;stroke:#C1FF44;stroke-miterlimit:10;" x1="84.597" y1="115.859" x2="178.571" y2="225.941"/>
			<line style="fill:none;stroke:#C1FF44;stroke-miterlimit:10;" x1="150.91" y1="45.978" x2="244.884" y2="156.06"/>
			
				<ellipse transform="matrix(0.6883 -0.7254 0.7254 0.6883 -21.9986 110.6351)" style="fill:none;stroke:#750CFF;stroke-width:8;stroke-miterlimit:10;" cx="117.753" cy="80.919" rx="21.51" ry="11.58"/>
		</g>
		<g>
			
				<rect x="184.397" y="73.775" transform="matrix(0.7463 -0.6656 0.6656 0.7463 -23.3278 152.1385)" style="fill:#EE17E4;" width="7.048" height="65.794"/>
			
				<rect x="211.429" y="134.233" transform="matrix(0.7463 -0.6656 0.6656 0.7463 -36.6461 177.8149)" style="fill:#EE17E4;" width="7.048" height="5.5"/>
		</g>
	</g>
	<path style="fill:none;stroke:#FE2B99;stroke-miterlimit:10;" d="M442.235,132.568l-37.185-2.582
		c-3.046-0.211-5.344-2.852-5.133-5.898l1.326-19.104c0.212-3.046,2.852-5.344,5.899-5.133l37.185,2.582
		c3.046,0.212,5.344,2.852,5.133,5.898l-1.326,19.104C447.922,130.482,445.281,132.78,442.235,132.568z"/>
	<g>
		<g>
			
				<rect x="404.696" y="114.997" transform="matrix(0.9836 -0.1805 0.1805 0.9836 -13.902 78.4944)" style="fill:#EE17E4;" width="39.45" height="1.299"/>
			
				<rect x="423.772" y="95.922" transform="matrix(0.3323 -0.9432 0.9432 0.3323 174.3262 477.5306)" style="fill:#EE17E4;" width="1.299" height="39.45"/>
		</g>
	</g>
	<g>
		<g>
			
				<rect x="387.401" y="126.723" transform="matrix(0.9953 0.0965 -0.0965 0.9953 14.2143 -36.9454)" style="fill:#FFFFFF;" width="3.634" height="3.633"/>
			
				<rect x="392.053" y="132.373" transform="matrix(0.9953 0.0965 -0.0965 0.9953 14.781 -37.3678)" style="fill:#FFFFFF;" width="3.633" height="3.633"/>
		</g>
		<g>
			
				<rect x="396.19" y="89.68" transform="matrix(-0.9953 -0.0964 0.0964 -0.9953 785.3347 220.9492)" style="fill:#FFFFFF;" width="3.633" height="3.633"/>
			
				<rect x="390.54" y="94.332" transform="matrix(-0.9953 -0.0964 0.0964 -0.9953 773.6116 229.6868)" style="fill:#FFFFFF;" width="3.633" height="3.634"/>
		</g>
		<g>
			
				<rect x="455.569" y="133.328" transform="matrix(-0.9953 -0.0965 0.0965 -0.9953 899.603 313.7802)" style="fill:#FFFFFF;" width="3.634" height="3.633"/>
			
				<rect x="449.919" y="137.98" transform="matrix(-0.9953 -0.0965 0.0965 -0.9953 887.8798 322.5176)" style="fill:#FFFFFF;" width="3.634" height="3.634"/>
		</g>
		<g>
			
				<rect x="454.056" y="95.287" transform="matrix(0.9953 0.0964 -0.0964 0.9953 11.4889 -43.5095)" style="fill:#FFFFFF;" width="3.633" height="3.633"/>
			
				<rect x="458.708" y="100.937" transform="matrix(0.9953 0.0964 -0.0964 0.9953 12.0554 -43.9317)" style="fill:#FFFFFF;" width="3.633" height="3.633"/>
		</g>
	</g>
	<g>
		<g>
			<path style="fill:none;stroke:#FFFFFF;stroke-width:14;stroke-miterlimit:10;" d="M320.274,89.034
				c27.062,5.043,44.913,31.069,39.87,58.132c-5.043,27.062-31.069,44.913-58.132,39.87"/>
			<path style="fill:none;stroke:#EE17E4;stroke-width:4;stroke-miterlimit:10;" d="M316.888,107.203
				c17.028,3.173,28.259,19.549,25.086,36.577c-3.173,17.028-19.549,28.259-36.577,25.086"/>
		</g>
		<path style="fill:none;stroke:#C1FF44;stroke-miterlimit:10;" d="M300.651,191.803c-6.147,32.195,69.502,73.691,168.968,92.683
			l26.092-136.653c-99.466-18.992-175.115-60.487-168.968-92.683c5.098-26.7,64.852-38.619,141.833-31.077L455.01,95.12"/>
		<line style="fill:none;stroke:#C1FF44;stroke-miterlimit:10;" x1="326.744" y1="55.15" x2="300.651" y2="191.803"/>
	</g>
	<g>
		
			<rect x="377.983" y="143.474" transform="matrix(0.9715 0.2372 -0.2372 0.9715 45.462 -86.0664)" style="fill:#C1FF44;" width="4.848" height="4.848"/>
		
			<rect x="477.627" y="167.803" transform="matrix(0.9715 0.2372 -0.2372 0.9715 54.0748 -109.0049)" style="fill:#C1FF44;" width="4.848" height="4.848"/>
		
			<rect x="396.24" y="155.781" transform="matrix(0.9715 0.2372 -0.2372 0.9715 49.8183 -97.6691)" style="fill:#C1FF44;" width="69.141" height="4.848"/>
		<line style="fill:none;stroke:#C1FF44;stroke-miterlimit:10;" x1="480.051" y1="170.227" x2="380.407" y2="145.898"/>
	</g>
	<g>
		<polygon style="fill:#00152C;" points="491.985,251.817 503.192,203.626 506.735,201.325 507.582,197.68 401.068,172.909 
			400.221,176.553 402.384,180.182 391.177,228.372 387.634,230.674 386.787,234.318 493.301,259.089 494.148,255.445 		"/>
		
			<rect x="452.609" y="239.408" transform="matrix(0.974 0.2265 -0.2265 0.974 66.3644 -96.5946)" style="fill:#EE17E4;" width="2.929" height="2.929"/>
		
			<rect x="459.538" y="241.019" transform="matrix(0.974 0.2265 -0.2265 0.974 66.9069 -98.1192)" style="fill:#EE17E4;" width="2.929" height="2.929"/>
		
			<rect x="466.467" y="242.631" transform="matrix(0.974 0.2265 -0.2265 0.974 67.452 -99.6467)" style="fill:#C3FF44;" width="2.929" height="2.929"/>
		
			<rect x="473.396" y="244.242" transform="matrix(0.974 0.2265 -0.2265 0.974 67.9997 -101.1774)" style="fill:#EE17E4;" width="2.929" height="2.929"/>
		<polygon style="fill:none;stroke:#FFFFFF;stroke-miterlimit:10;" points="477.249,225.744 482.975,201.123 409.475,184.029 
			401.892,216.636 467.406,231.872 		"/>
		<line style="fill:none;stroke:#FFFFFF;stroke-miterlimit:10;" x1="487.62" y1="212.085" x2="496.16" y2="206.767"/>
		<line style="fill:none;stroke:#FFFFFF;stroke-miterlimit:10;" x1="486.009" y1="219.013" x2="494.549" y2="213.696"/>
		<line style="fill:none;stroke:#FFFFFF;stroke-miterlimit:10;" x1="484.397" y1="225.942" x2="492.938" y2="220.625"/>
		<line style="fill:none;stroke:#FFFFFF;stroke-miterlimit:10;" x1="482.786" y1="232.871" x2="491.326" y2="227.554"/>
		
			<rect x="389.248" y="225.005" transform="matrix(0.974 0.2265 -0.2265 0.974 61.7842 -86.597)" style="fill:#C3FF44;" width="37.94" height="1.813"/>
		
			<rect x="430.47" y="230.44" transform="matrix(0.974 0.2265 -0.2265 0.974 63.6192 -91.745)" style="fill:#C3FF44;" width="2.232" height="1.813"/>
	</g>
	<g>
		<path style="fill:none;stroke:#C1FF44;stroke-miterlimit:10;" d="M566.675,365.614c10.848,8.656,16.436,18.2,13.767,25.776
			c-4.575,12.988-31.681,15.274-60.542,5.107c-28.861-10.167-48.549-28.937-43.974-41.925c2.288-6.494,10.208-10.312,21.164-11.237"
			/>
		<path style="fill:none;stroke:#C1FF44;stroke-miterlimit:10;" d="M497.286,431.667c4.384,5.67,6.045,11.166,3.963,15.206
			c-4.267,8.28-22.642,7.307-41.043-2.174c-18.401-9.481-29.859-23.88-25.592-32.16c2.484-4.821,9.749-6.505,19.018-5.2"/>
	</g>
	<g>
		<rect x="551.038" y="376.535" style="fill:#00152C;" width="16.867" height="4.436"/>
		<rect x="559.472" y="387.237" style="fill:#00152C;" width="8.433" height="4.436"/>
	</g>
	<g>
		<g>
			<polyline style="fill:none;stroke:#750CFF;stroke-miterlimit:10;" points="496.211,331.774 487.936,331.774 546.806,218.876 
				555.081,218.876 			"/>
			<polyline style="fill:none;stroke:#750CFF;stroke-miterlimit:10;" points="630.112,331.774 638.387,331.774 697.256,218.876 
				688.982,218.876 			"/>
		</g>
		<polygon style="fill:#7617FD;" points="572.04,304.649 550.977,304.649 614.506,247.212 635.569,247.212 		"/>
		<polygon style="fill:#FFFFFF;" points="567.479,269.656 551.681,269.656 583.446,240.938 599.243,240.938 		"/>
		<g>
			<polygon style="fill:#FFFFFF;" points="588.758,325.004 583.492,325.004 586.238,319.738 591.504,319.738 			"/>
			<polygon style="fill:#FFFFFF;" points="622.108,325.004 594.776,325.004 597.522,319.738 624.854,319.738 			"/>
			<line style="fill:none;stroke:#FFFFFF;stroke-miterlimit:10;" x1="609.815" y1="322.371" x2="587.498" y2="322.371"/>
		</g>
		<path style="fill:#C1FF44;" d="M671.319,237.251c-0.995,1.907-3.347,3.453-5.254,3.453c-1.907,0-2.647-1.546-1.653-3.453
			c0.995-1.907,3.347-3.453,5.254-3.453C671.573,233.798,672.313,235.344,671.319,237.251z"/>
		
			<ellipse transform="matrix(0.7913 -0.6114 0.6114 0.7913 -18.671 455.8949)" style="fill:#C1FF44;" cx="658.456" cy="255.297" rx="4.469" ry="2.668"/>
		<path style="fill:#EE17E4;" d="M652.5,273.342c-0.995,1.907-3.347,3.453-5.254,3.453c-1.907,0-2.647-1.546-1.653-3.453
			c0.995-1.907,3.347-3.453,5.254-3.453C652.754,269.888,653.494,271.435,652.5,273.342z"/>
	</g>
	<g>
		<rect x="504.457" y="92.023" style="fill:#00152C;" width="25.476" height="25.476"/>
		<rect x="509.402" y="87.078" style="fill:#FE2B99;" width="25.476" height="25.476"/>
		<g>
			<g>
				
					<rect x="511.517" y="97.64" transform="matrix(0.7071 -0.7071 0.7071 0.7071 82.3559 398.4515)" style="fill:#FFFFFF;" width="21.246" height="4.352"/>
				
					<rect x="519.964" y="89.193" transform="matrix(0.7071 -0.7071 0.7071 0.7071 82.351 398.4443)" style="fill:#FFFFFF;" width="4.352" height="21.246"/>
			</g>
		</g>
	</g>
	<g>
		<g>
			<line style="fill:none;stroke:#FFFFFF;stroke-miterlimit:10;" x1="127.956" y1="300.967" x2="342.511" y2="300.967"/>
			<polygon style="fill:#FFFFFF;" points="133.494,312.305 116.747,312.305 128.088,289.63 144.835,289.63 			"/>
		</g>
		<g>
			<polyline style="fill:none;stroke:#FFFFFF;stroke-miterlimit:10;" points="223.832,48.094 249.599,73.86 300.302,73.86 			"/>
			<rect x="195.259" y="42.551" style="fill:#FFFFFF;" width="29.892" height="6.853"/>
		</g>
		<g>
			<polyline style="fill:none;stroke:#FFFFFF;stroke-miterlimit:10;" points="365.65,75.883 398.859,52.687 518.824,52.687 			"/>
			<rect x="516.823" y="50.686" style="fill:#FFFFFF;" width="4.002" height="4.002"/>
			<rect x="364.021" y="73.882" style="fill:#FFFFFF;" width="4.002" height="4.002"/>
			<rect x="486.801" y="50.686" style="fill:#FFFFFF;" width="16.645" height="4.002"/>
		</g>
		<g>
			<g>
				
					<rect x="45.96" y="169.238" transform="matrix(0.7071 -0.7071 0.7071 0.7071 -102.5045 92.9866)" style="fill:#C1FF44;" width="30.066" height="1.978"/>
				
					<rect x="60.004" y="155.194" transform="matrix(0.7071 -0.7071 0.7071 0.7071 -102.5053 92.9884)" style="fill:#C1FF44;" width="1.978" height="30.066"/>
			</g>
		</g>
	</g>
	<g>
		<g>
			<circle style="fill:none;stroke:#C1FF44;stroke-miterlimit:10;" cx="578.122" cy="159.318" r="24.442"/>
			<line style="fill:none;stroke:#EE17E4;stroke-miterlimit:10;" x1="605.268" y1="132.172" x2="550.977" y2="186.463"/>
		</g>
		<g>
			
				<ellipse transform="matrix(0.7071 -0.7071 0.7071 0.7071 117.0853 430.434)" style="fill:none;stroke:#C1FF44;stroke-miterlimit:10;" cx="578.122" cy="73.882" rx="24.442" ry="24.442"/>
			<line style="fill:none;stroke:#EE17E4;stroke-miterlimit:10;" x1="605.268" y1="46.737" x2="550.977" y2="101.028"/>
		</g>
	</g>
	<g>
		<g>
			<rect x="102.913" y="235.214" style="fill:#C1FF44;" width="27.546" height="9.034"/>
			<rect x="88.748" y="253.703" style="fill:#C1FF44;" width="13.773" height="9.034"/>
			<rect x="115.076" y="249.131" style="fill:#00152C;" width="13.45" height="4.572"/>
			<rect x="140.049" y="251.417" style="fill:#00152C;" width="24.874" height="11.75"/>
			<rect x="158.988" y="262.737" style="fill:#00152C;" width="17.767" height="5.823"/>
		</g>
		<g>
			<rect x="620.712" y="92.023" style="fill:#C1FF44;" width="42.972" height="12.738"/>
		</g>
		<g>
			
				<rect x="610.384" y="165.884" transform="matrix(-1 -1.224647e-16 1.224647e-16 -1 1271.5225 347.1968)" style="fill:#FFFFFF;" width="50.754" height="15.429"/>
			
				<rect x="661.138" y="155.598" transform="matrix(-1 -1.224647e-16 1.224647e-16 -1 1340.5791 321.4825)" style="fill:#FFFFFF;" width="18.303" height="10.286"/>
		</g>
		<g>
			<rect x="159.846" y="21.405" style="fill:#EE17E4;" width="5.81" height="5.81"/>
			<rect x="168.795" y="30.353" style="fill:#EE17E4;" width="5.81" height="5.81"/>
		</g>
		<g>
			<polygon style="fill:#EE17E4;" points="207.379,422.02 186.316,422.02 234.417,378.954 255.48,378.954 			"/>
			<polygon style="fill:#EE17E4;" points="167.778,422.02 151.98,422.02 183.745,393.302 199.542,393.302 			"/>
		</g>
	</g>
</g>
</svg>
