<?xml version="1.0" encoding="utf-8"?>
<!-- Generator: Adobe Illustrator 27.5.0, SVG Export Plug-In . SVG Version: 6.00 Build 0)  -->
<svg version="1.1" xmlns="http://www.w3.org/2000/svg" xmlns:xlink="http://www.w3.org/1999/xlink" x="0px" y="0px"
	 viewBox="0 0 750 500" style="enable-background:new 0 0 750 500;" xml:space="preserve">
<g id="BACKGROUND">
	<g>
		<rect y="-0.005" style="fill:#820BB7;" width="750" height="500"/>
	</g>
</g>
<g id="OBJECT">
	<g>
		<g>
			<polygon style="fill:#00152C;" points="469.418,482.123 487.295,500 469.745,500 469.418,499.673 			"/>
			<polygon style="fill:#00152C;" points="469.418,428.496 540.922,500 523.372,500 469.418,446.047 			"/>
			<polygon style="fill:#00152C;" points="470.721,376.168 594.549,500 576.998,500 469.418,392.42 469.418,377.471 			"/>
			<polygon style="fill:#00152C;" points="497.534,349.355 648.175,500 630.625,500 488.759,358.13 			"/>
			<polygon style="fill:#00152C;" points="524.348,322.541 684.256,482.445 684.256,500 515.573,331.316 			"/>
			<polygon style="fill:#00152C;" points="551.161,295.728 684.256,428.819 684.256,446.369 542.386,304.503 			"/>
			<polygon style="fill:#00152C;" points="577.979,268.915 684.256,375.197 684.256,392.742 569.204,277.69 			"/>
		</g>
	</g>
	<g>
		<polygon style="fill:#750CFF;" points="319.69,37.645 0.03,357.305 0,357.305 0,147.295 109.65,37.645 		"/>
		<polygon style="fill:#EE17E4;" points="640.359,37.648 320.699,357.308 110.659,357.308 430.319,37.648 		"/>
		<polygon style="fill:#750CFF;" points="750,147.295 750,357.305 749.98,357.305 590.65,197.985 695.67,92.965 		"/>
	</g>
	<g>
		<g>
			<polygon style="fill:#FFFFFF;" points="138.96,208.641 128.428,207.571 128.785,204.454 139.317,205.523 			"/>
			<polygon style="fill:#FFFFFF;" points="133.389,230.676 136.308,205.218 139.317,205.523 136.399,230.982 			"/>
		</g>
		<g>
			<polygon style="fill:#FFFFFF;" points="242.276,219.13 231.744,218.061 232.101,214.943 242.633,216.013 			"/>
			<polygon style="fill:#FFFFFF;" points="236.705,241.165 239.624,215.707 242.633,216.013 239.715,241.471 			"/>
		</g>
		<g>
			<polygon style="fill:#FFFFFF;" points="156.514,210.423 145.982,209.354 146.339,206.236 156.871,207.306 			"/>
			<polygon style="fill:#FFFFFF;" points="150.943,232.458 153.862,207 156.871,207.306 153.952,232.764 			"/>
		</g>
		<g>
			<polygon style="fill:#FFFFFF;" points="174.067,212.205 163.535,211.136 163.893,208.018 174.425,209.088 			"/>
			<polygon style="fill:#FFFFFF;" points="168.497,234.24 171.416,208.782 174.425,209.088 171.506,234.546 			"/>
		</g>
		<g>
			<polygon style="fill:#FFFFFF;" points="121.406,206.859 103.1,205 103.458,201.883 121.764,203.741 			"/>
			<polygon style="fill:#FFFFFF;" points="100.539,227.341 103.458,201.883 106.467,202.188 103.548,227.646 			"/>
			<polygon style="fill:#FFFFFF;" points="115.836,228.894 118.755,203.436 121.764,203.741 118.845,229.199 			"/>
			<polygon style="fill:#FFFFFF;" points="118.845,229.199 100.539,227.341 100.896,224.223 119.202,226.082 			"/>
		</g>
		<g>
			<polygon style="fill:#FFFFFF;" points="199.395,214.777 181.089,212.918 181.446,209.801 199.752,211.659 			"/>
			<polygon style="fill:#FFFFFF;" points="178.527,235.259 181.446,209.801 184.455,210.106 181.537,235.564 			"/>
			<polygon style="fill:#FFFFFF;" points="193.824,236.812 196.743,211.354 199.752,211.659 196.833,237.117 			"/>
			<polygon style="fill:#FFFFFF;" points="196.833,237.117 178.527,235.259 178.885,232.141 197.191,234 			"/>
		</g>
		<g>
			<polygon style="fill:#FFFFFF;" points="224.722,217.348 206.416,215.489 206.774,212.372 225.08,214.231 			"/>
			<polygon style="fill:#FFFFFF;" points="203.855,237.83 206.774,212.372 209.783,212.678 206.864,238.136 			"/>
			<polygon style="fill:#FFFFFF;" points="219.152,239.383 222.07,213.925 225.08,214.231 222.161,239.689 			"/>
			<polygon style="fill:#FFFFFF;" points="222.161,239.689 203.855,237.83 204.212,234.713 222.518,236.571 			"/>
		</g>
		<g>
			<polygon style="fill:#FFFFFF;" points="267.603,221.702 249.297,219.843 249.655,216.726 267.961,218.584 			"/>
			<polygon style="fill:#FFFFFF;" points="246.736,242.184 249.655,216.726 252.664,217.031 249.745,242.489 			"/>
			<polygon style="fill:#FFFFFF;" points="262.033,243.737 264.952,218.279 267.961,218.584 265.042,244.042 			"/>
			<polygon style="fill:#FFFFFF;" points="265.042,244.042 246.736,242.184 247.093,239.066 265.399,240.925 			"/>
		</g>
		<g>
			<polygon style="fill:#FFFFFF;" points="285.157,223.484 274.625,222.414 274.982,219.297 285.514,220.366 			"/>
			<polygon style="fill:#FFFFFF;" points="279.586,245.519 282.505,220.061 285.514,220.366 282.596,245.824 			"/>
		</g>
		<g>
			<polygon style="fill:#FFFFFF;" points="171.359,247.999 160.827,246.93 161.184,243.813 171.716,244.882 			"/>
			<polygon style="fill:#FFFFFF;" points="165.788,270.035 168.707,244.577 171.716,244.882 168.798,270.34 			"/>
		</g>
		<g>
			<polygon style="fill:#FFFFFF;" points="110.924,241.864 100.392,240.794 100.749,237.677 111.282,238.746 			"/>
			<polygon style="fill:#FFFFFF;" points="105.354,263.899 108.272,238.441 111.282,238.746 108.363,264.204 			"/>
		</g>
		<g>
			<polygon style="fill:#FFFFFF;" points="128.478,243.646 117.946,242.577 118.303,239.459 128.835,240.529 			"/>
			<polygon style="fill:#FFFFFF;" points="122.907,265.681 125.826,240.223 128.835,240.529 125.916,265.987 			"/>
		</g>
		<g>
			<polygon style="fill:#FFFFFF;" points="153.805,246.217 135.499,244.359 135.857,241.241 154.163,243.1 			"/>
			<polygon style="fill:#FFFFFF;" points="132.938,266.699 135.857,241.241 138.866,241.547 135.947,267.005 			"/>
			<polygon style="fill:#FFFFFF;" points="148.235,268.253 151.153,242.794 154.163,243.1 151.244,268.558 			"/>
			<polygon style="fill:#FFFFFF;" points="151.244,268.558 132.938,266.699 133.295,263.582 151.601,265.441 			"/>
		</g>
		<g>
			<polygon style="fill:#FFFFFF;" points="239.567,254.924 221.261,253.066 221.619,249.949 239.925,251.807 			"/>
			<polygon style="fill:#FFFFFF;" points="218.7,275.407 221.619,249.949 224.628,250.254 221.709,275.712 			"/>
			<polygon style="fill:#FFFFFF;" points="233.997,276.96 236.916,251.502 239.925,251.807 237.006,277.265 			"/>
			<polygon style="fill:#FFFFFF;" points="237.006,277.265 218.7,275.407 219.057,272.289 237.363,274.148 			"/>
		</g>
		<g>
			<polygon style="fill:#FFFFFF;" points="196.686,250.571 178.38,248.712 178.738,245.595 197.044,247.454 			"/>
			<polygon style="fill:#FFFFFF;" points="175.819,271.053 178.738,245.595 181.747,245.9 178.828,271.358 			"/>
			<polygon style="fill:#FFFFFF;" points="191.116,272.606 194.035,247.148 197.044,247.454 194.125,272.912 			"/>
			<polygon style="fill:#FFFFFF;" points="194.125,272.912 175.819,271.053 176.176,267.936 194.482,269.794 			"/>
		</g>
		<g>
			<polygon style="fill:#FFFFFF;" points="214.24,252.353 203.708,251.284 204.065,248.166 214.597,249.236 			"/>
			<polygon style="fill:#FFFFFF;" points="208.669,274.388 211.588,248.93 214.597,249.236 211.679,274.694 			"/>
		</g>
	</g>
	<g>
		<g>
			<g>
				
					<text transform="matrix(0.7006 0 -0.4573 0.8893 62.9355 137.5238)" style="fill:#C1FF44; font-family:'RussoOne-Regular'; font-size:134.8173px;">METAVERSE</text>
			</g>
		</g>
	</g>
	<g>
		
			<rect x="634.24" y="261.37" transform="matrix(0.9952 0.0977 -0.0977 0.9952 29.8858 -61.9172)" style="fill:#00152C;" width="25.476" height="25.476"/>
		
			<rect x="639.646" y="256.932" transform="matrix(0.9952 0.0977 -0.0977 0.9952 29.4767 -62.4645)" style="fill:#FE2B99;" width="25.476" height="25.476"/>
		<g>
			<g>
				
					<rect x="641.761" y="267.494" transform="matrix(0.7728 -0.6346 0.6346 0.7728 -22.9341 475.2713)" style="fill:#FFFFFF;" width="21.246" height="4.352"/>
				
					<rect x="650.208" y="259.047" transform="matrix(0.7728 -0.6346 0.6346 0.7728 -22.9341 475.2713)" style="fill:#FFFFFF;" width="4.352" height="21.246"/>
			</g>
		</g>
	</g>
	<g>
		<g>
			<path style="fill:#FE2B99;" d="M541.04,499.995h-241.6c7.03-38.16-0.16-72.07-7.92-94.65c-6.19-18-12.74-28.8-12.74-28.8
				c-81.65,66.16-168.16,55.08-179.6-15.61c-8.69-53.67,62.55-81.46,115.01-96.68c16.64-4.82,31.39-8.38,41.11-11.1
				c33.6-9.4,60.19-13.98,79.39-16.16c24.14-2.74,36.59-1.69,36.59-1.69c66.01,12.55,84.56,13.61,117.54,33.29
				c30.86,18.41,43.63,164.97,43.63,164.97s3.54,17.86,6.1,38.16v0.01c0.63,4.98,1.2,10.1,1.65,15.14
				C540.59,491.365,540.89,495.795,541.04,499.995z"/>
			<path style="fill:#115AE5;" d="M353.39,499.995H337.3c0,0,2.74-58.08-10.7-84.98l-35.08-9.67c-6.19-18-12.74-28.8-12.74-28.8
				l-3.03-8.99l64.128,21.411C339.878,388.966,360.643,455.363,353.39,499.995z"/>
			<g>
				<polygon style="fill:#115AE5;" points="195.161,322.27 164.03,358.418 190.931,352.889 221.679,314.908 				"/>
				<polygon style="fill:#115AE5;" points="235.825,311.761 202.8,350.668 229.701,345.139 260.449,307.158 				"/>
			</g>
			<path style="fill:none;stroke:#FFFFFF;stroke-width:7;stroke-miterlimit:10;" d="M516.207,369.793
				c-2.113,0.593-4.342,0.911-6.645,0.911c-13.546,0-24.527-10.981-24.527-24.527c0-10.764,6.934-19.909,16.579-23.211"/>
			<path style="fill:#00152C;" d="M218.963,275.63l-4.773-11.375c16.64-4.82,31.39-8.38,41.11-11.1
				c33.6-9.4,60.19-13.98,79.39-16.16l2.61,13C337.3,249.995,256.135,262.556,218.963,275.63z"/>
			<path style="fill:#FFFFFF;" d="M450.905,274.397c0,0,7.305-22.484,7.938-32.62c0.634-10.136,0.985-29.465-7.938-35.167
				c-8.923-5.702-56.034-11.404-64.155-2.534c-8.121,8.869-15.549,25.875-15.474,31.225
				C371.365,241.568,434.487,283.267,450.905,274.397z"/>
			<path style="fill:#00152C;" d="M394.073,204.54c-3.31,5.193,39.989,37.744,53.929,31.888c9.383-3.942,10.25-23.265,2.346-27.893
				C442.443,203.906,398.918,196.937,394.073,204.54z"/>
			<path style="fill:#FFFFFF;" d="M263.675,307.158c0,0-5.121,45.386,15.104,69.385c0,0,36.843-10.355,44.868-18
				c6.729-6.412-12.573-68.771-20.665-66.422C292.594,295.137,275.831,302.127,263.675,307.158z"/>
			<path style="fill:#00152C;" d="M301.721,295.275c-6.002,2.852,9.078,64.879,19.032,62.962
				C327.405,356.956,308.884,291.872,301.721,295.275z"/>
			<path style="fill:none;stroke:#FFFFFF;stroke-miterlimit:10;" d="M445.102,268.597c0,0,25.918,109.481,43.72,231.398"/>
			<path style="fill:none;stroke:#FFFFFF;stroke-miterlimit:10;" d="M263.675,307.158c0,0-29.679,3.283-62.091,13.238
				c-32.411,9.956-41.115,5.645-49.818,3.449c-8.703-2.196,18.989-4.611,40.352-7.755"/>
			<path style="fill:none;stroke:#00152C;stroke-miterlimit:10;" d="M497.129,308.73c0,0,22.395,70.772,33.747,109.494"/>
			<g>
				<polygon style="fill:none;stroke:#00152C;stroke-linejoin:round;stroke-miterlimit:10;" points="446.729,275.63 
					445.621,291.801 456.344,288.371 				"/>
			</g>
			<polygon style="fill:#FFFFFF;" points="411.58,457.525 378.96,499.995 368.99,499.995 405.31,452.705 			"/>
			<path style="fill:#FFFFFF;" d="M540.2,486.875l-22.54-29.35l6.28-4.82l14.61,19.02v0.01
				C539.18,476.715,539.75,481.835,540.2,486.875z"/>
		</g>
		<g>
			<path style="fill:#00152C;" d="M459.751,104.372c0,0,19.085,5.913,11.342,33.788c-1.234,4.443,5.905,16.543-3.313,23.958
				c-9.218,7.414-74.102,27.687-78.541,1.66c0,0-7.52-14.897-1.053-29.169c2.495-5.505,16.035-5.8,16.035-5.8
				s4.434-7.598,11.315-7.574c9.521,0.032,21.347,0.347,26.697-1.641c5.35-1.988,7.321-7.901,7.321-7.901s6.689,3.976,6.16,7.901
				C455.713,119.594,461.379,114.508,459.751,104.372z"/>
			<path style="fill:#FF9199;" d="M401.047,185.392l-2.458,23.143c0,0,10.277,16.489,37.307,24.796
				c7.118,2.187,10.836,0,12.106-1.408c0,0-2.218-15.37-2.445-27.535L401.047,185.392z"/>
			<path style="fill:#00152C;" d="M448.001,231.922c0,0-42.373-13.427-32.8-32.446l30.355,7.152L448.001,231.922z"/>
			<g>
				<g>
					<path style="fill:#FF9199;" d="M458.976,151.951c3.754,10.913,4.86,41.787,0.913,49.287
						c-5.879,11.171-18.451,10.768-24.137,9.909c-5.686-0.859-19.787-7.705-25.203-12.354c-5.416-4.649-13.45-24.676-14.254-32.018
						c0,0,10.164,0.062,12.381-3.139c2.217-3.201-4.715-6.101-4.758-11.707C403.876,146.322,453.351,135.598,458.976,151.951z"/>
					<path style="fill:#FF9199;" d="M402.917,166.084c0,0-6.15-6.939-11.996-2.459c-4.635,3.552-2.713,15.5,1.111,19.821
						c6.214,7.02,13.072,2.656,13.765-3.415C406.211,176.396,402.917,166.084,402.917,166.084z"/>
					<path style="fill:#FFFFFF;" d="M454.926,205.616c4.052-8.367,3.371-37.315-0.225-49.778c-0.987-3.42,3.086-6.983,4.275-3.888
						c4.136,10.774,4.86,41.787,0.913,49.287c-1.719,3.267-4.013,5.539-6.538,7.104
						C453.915,207.509,454.446,206.609,454.926,205.616z"/>
				</g>
			</g>
			<g>
				<path style="fill:#FFFFFF;" d="M400.558,190.504L400.558,190.504c-7.342,0.348-13.576-5.321-13.925-12.662l-0.651-13.715
					c-0.349-7.342,5.32-13.576,12.662-13.924l0,0c2.352-0.112,4.349,1.704,4.46,4.056l1.509,31.786
					C404.725,188.395,402.91,190.392,400.558,190.504z"/>
				<path style="fill:none;stroke:#00152C;stroke-width:0.5;stroke-miterlimit:10;" d="M395.331,150.202L395.331,150.202
					c2.352-0.112,4.349,1.704,4.46,4.056l1.509,31.786c0.112,2.352-1.704,4.348-4.056,4.46l0,0"/>
			</g>
			<g>
				<path style="fill:#00152C;" d="M407.006,186.753l34.524-1.695c5.701-0.28,10.095-5.128,9.815-10.829l-0.679-13.836
					c-0.28-5.701-5.128-10.095-10.829-9.815l-34.524,1.695c-5.701,0.28-10.095,5.128-9.815,10.829l0.68,13.836
					C396.457,182.638,401.305,187.033,407.006,186.753z"/>
				<path style="fill:#FFFFFF;" d="M421.088,186.061l34.524-1.695c5.701-0.28,10.095-5.128,9.815-10.829l-0.679-13.836
					c-0.28-5.701-5.128-10.095-10.829-9.815l-34.524,1.695c-5.701,0.28-10.095,5.128-9.815,10.829l0.68,13.836
					C410.539,181.947,415.387,186.341,421.088,186.061z"/>
				<path style="fill:#00152C;" d="M431.457,185.552l34.524-1.695c5.701-0.28,10.095-5.128,9.815-10.829l-0.679-13.836
					c-0.28-5.701-5.128-10.095-10.829-9.815l-34.524,1.695c-5.701,0.28-10.095,5.128-9.815,10.829l0.679,13.836
					C420.908,181.438,425.756,185.832,431.457,185.552z"/>
				<path style="fill:#FFFFFF;" d="M461.444,184.079c5.701-0.28,10.095-5.128,9.815-10.829l-0.68-13.836
					c-0.28-5.701-5.128-10.095-10.829-9.815l4.537-0.223c5.701-0.28,10.549,4.115,10.829,9.815l0.679,13.836
					c0.28,5.701-4.115,10.549-9.815,10.829L461.444,184.079z"/>
				<path style="fill:none;stroke:#00152C;stroke-width:0.5;stroke-miterlimit:10;" d="M419.395,151.581
					c0,0-4.548,5.548-3.771,16.926c0.888,12.997,5.464,17.554,5.464,17.554"/>
				<path style="fill:#00152C;" d="M416.436,158.314l1.812,1.393c0,0-1.034,9.582,0.53,17.401l-1.213,2.129
					C417.565,179.236,413.959,168.452,416.436,158.314z"/>
				<path style="fill:#C1FF44;" d="M405.56,172.854l0.749-0.037c0.349-0.017,0.617-0.314,0.6-0.662l-0.262-5.346
					c-0.017-0.349-0.314-0.617-0.662-0.6l-0.749,0.037c-0.349,0.017-0.617,0.314-0.6,0.662l0.262,5.346
					C404.914,172.603,405.211,172.872,405.56,172.854z"/>
			</g>
			<path style="fill:#FFFFFF;" d="M415.535,121.234c0,0,8.792-0.563,11.832,2.534c3.039,3.097,6.468,20.845,6.443,26.997
				l20.109-0.88c0,0-1.121-22.216-6.046-27.622C441.561,115.335,424.597,118.7,415.535,121.234z"/>
			<g>
				
					<rect x="450.304" y="179.745" transform="matrix(0.9991 -0.0434 0.0434 0.9991 -7.4061 19.7418)" style="fill:#FE2B99;" width="1.429" height="1.429"/>
				
					<rect x="443.642" y="180.034" transform="matrix(0.9991 -0.0434 0.0434 0.9991 -7.4254 19.4544)" style="fill:#FE2B99;" width="1.429" height="1.429"/>
				
					<rect x="456.691" y="173.14" transform="matrix(0.9991 -0.0434 0.0434 0.9991 -7.1135 20.0127)" style="fill:#FE2B99;" width="1.429" height="1.429"/>
				
					<rect x="450.029" y="173.43" transform="matrix(0.9991 -0.0435 0.0435 0.9991 -7.1432 19.7561)" style="fill:#FE2B99;" width="1.429" height="1.429"/>
				
					<rect x="443.368" y="173.719" transform="matrix(0.9991 -0.0434 0.0434 0.9991 -7.1516 19.4365)" style="fill:#FE2B99;" width="1.429" height="1.429"/>
				
					<rect x="436.707" y="174.008" transform="matrix(0.9991 -0.0434 0.0434 0.9991 -7.17 19.1464)" style="fill:#FE2B99;" width="1.429" height="1.429"/>
				
					<rect x="463.077" y="166.535" transform="matrix(0.9991 -0.0434 0.0434 0.9991 -6.8213 20.2851)" style="fill:#FE2B99;" width="1.429" height="1.429"/>
				
					<rect x="456.416" y="166.825" transform="matrix(0.9991 -0.0435 0.0435 0.9991 -6.85 20.0273)" style="fill:#FE2B99;" width="1.429" height="1.429"/>
				
					<rect x="449.755" y="167.114" transform="matrix(0.9991 -0.0434 0.0434 0.9991 -6.8585 19.7059)" style="fill:#FE2B99;" width="1.429" height="1.429"/>
				
					<rect x="443.094" y="167.404" transform="matrix(0.9991 -0.0434 0.0434 0.9991 -6.8774 19.4173)" style="fill:#FE2B99;" width="1.429" height="1.429"/>
				
					<rect x="436.432" y="167.693" transform="matrix(0.9991 -0.0434 0.0434 0.9991 -6.8962 19.1285)" style="fill:#FE2B99;" width="1.429" height="1.429"/>
				
					<rect x="429.771" y="167.983" transform="matrix(0.9991 -0.0434 0.0434 0.9991 -6.915 18.8397)" style="fill:#FE2B99;" width="1.429" height="1.429"/>
				
					<rect x="456.142" y="160.51" transform="matrix(0.9991 -0.0434 0.0434 0.9991 -6.5659 19.977)" style="fill:#FE2B99;" width="1.429" height="1.429"/>
				
					<rect x="449.48" y="160.799" transform="matrix(0.9991 -0.0435 0.0435 0.9991 -6.5951 19.7215)" style="fill:#FE2B99;" width="1.429" height="1.429"/>
				
					<rect x="442.819" y="161.089" transform="matrix(0.9991 -0.0434 0.0434 0.9991 -6.6036 19.3994)" style="fill:#FE2B99;" width="1.429" height="1.429"/>
				
					<rect x="436.158" y="161.378" transform="matrix(0.9991 -0.0434 0.0434 0.9991 -6.6224 19.1106)" style="fill:#FE2B99;" width="1.429" height="1.429"/>
				
					<rect x="449.206" y="154.484" transform="matrix(0.9991 -0.0434 0.0434 0.9991 -6.3114 19.6717)" style="fill:#FE2B99;" width="1.429" height="1.429"/>
				
					<rect x="442.545" y="154.773" transform="matrix(0.9991 -0.0435 0.0435 0.9991 -6.3393 19.413)" style="fill:#FE2B99;" width="1.429" height="1.429"/>
			</g>
		</g>
		<g>
			<path style="fill:#FF9199;" d="M417.76,325.575c-2.43,3.77-18.99,1.53-22.7-0.48c-3.72-2.02-16.52,14.76-39.83,12.91
				c0,0-13.14,5.52-23.97,9.66c-4.68,1.79-8.92,3.33-11.49,4.05c-5.12,1.44-14.27-21.87-16.09-46.15l4.8-2.14l25.11-11.21
				c0,0,0.58-8.89,8.22-16.96c4.31-4.56,9.46-22.94,14.17-25.77c4.7-2.83,2.24,20.01,2.24,20.01s15.08-27.85,19.86-27.28
				c4.66,0.56-3.46,25.54-3.86,26.76c0.69-1.29,14.26-26.78,23.16-26.2c5.96,0.38-10.53,29.43-10.92,30.12
				c0.58-0.59,20.54-20.89,26.87-17.54c6.95,3.66-23.39,38.05-24.14,44.56c-0.74,6.52,8.79,13.22,15.73,13.9
				C411.85,314.495,420.19,321.795,417.76,325.575z"/>
			<path style="fill:#EF656D;" d="M331.26,347.665c-4.68,1.79-8.92,3.33-11.49,4.05c-5.12,1.44-14.27-21.87-16.09-46.15l4.8-2.14
				C312.03,311.185,322.55,333.785,331.26,347.665z"/>
			<path style="fill:none;stroke:#00152C;stroke-width:0.5;stroke-miterlimit:10;" d="M354.891,269.843
				c0,0,25.334-5.776,37.088,7.536"/>
		</g>
	</g>
	<g>
		<g>
			<polyline style="fill:none;stroke:#C1FF44;stroke-width:4;stroke-miterlimit:10;" points="281.337,355.112 272.766,346.542 
				355.59,201.386 368.467,201.386 			"/>
			<polyline style="fill:none;stroke:#C1FF44;stroke-width:4;stroke-miterlimit:10;" points="468.663,355.112 477.234,346.542 
				394.41,201.386 381.533,201.386 			"/>
			<polyline style="fill:none;stroke:#C1FF44;stroke-width:4;stroke-miterlimit:10;" points="287.849,361.671 293.425,367.248 
				456.422,367.248 463.951,359.718 			"/>
			<polygon style="fill:#C1FF44;" points="301.996,295.314 321.333,261.424 331.002,261.424 311.665,295.314 			"/>
			<polygon style="fill:#C1FF44;" points="447.903,295.314 428.565,261.424 418.897,261.424 438.234,295.314 			"/>
			<polygon style="fill:#C1FF44;" points="361.214,367.248 366.85,361.612 409.302,361.612 403.724,367.19 			"/>
		</g>
		<polygon style="fill:none;stroke:#FFFFFF;stroke-miterlimit:10;" points="375,271.23 418.301,271.23 396.651,308.73 375,346.23 
			353.349,308.73 331.699,271.23 		"/>
	</g>
	<g>
		
			<rect x="653.08" y="231.297" transform="matrix(0.9951 0.0984 -0.0984 0.9951 26.2717 -63.4487)" style="fill:#FE2B99;" width="6.672" height="6.672"/>
		
			<rect x="667.122" y="232.686" transform="matrix(0.9951 0.0984 -0.0984 0.9951 26.4809 -64.8331)" style="fill:#FE2B99;" width="6.672" height="6.672"/>
	</g>
	<g>
		<polygon style="fill:#FFFFFF;" points="325.046,171.404 332.334,171.404 328.69,176.453 325.046,181.503 321.402,176.453 
			317.758,171.404 		"/>
		<polygon style="fill:#C1FF44;" points="325.046,186.656 332.334,186.656 328.69,191.706 325.046,196.755 321.402,191.706 
			317.758,186.656 		"/>
	</g>
	<g>
		<line style="fill:none;stroke:#FFFFFF;stroke-miterlimit:10;" x1="101.336" y1="462.991" x2="315.891" y2="462.991"/>
		<polygon style="fill:#FFFFFF;" points="106.874,474.328 90.127,474.328 101.468,451.653 118.215,451.653 		"/>
	</g>
	<g>
		
			<rect x="79.138" y="220.68" transform="matrix(0.9951 0.0992 -0.0992 0.9951 33.0951 -35.6532)" style="fill:none;stroke:#FFFFFF;stroke-miterlimit:10;" width="591.723" height="188.455"/>
		<g>
			<g>
				
					<ellipse transform="matrix(0.9859 -0.1675 0.1675 0.9859 -32.164 102.8193)" style="fill:none;stroke:#C1FF44;stroke-miterlimit:10;" cx="593.367" cy="242.058" rx="24.442" ry="24.442"/>
				<line style="fill:none;stroke:#EE17E4;stroke-miterlimit:10;" x1="620.799" y1="215.201" x2="565.936" y2="268.915"/>
			</g>
			<g>
				
					<ellipse transform="matrix(0.942 -0.3355 0.3355 0.942 -48.9505 183.3893)" style="fill:none;stroke:#C1FF44;stroke-miterlimit:10;" cx="506.323" cy="233.376" rx="24.442" ry="24.442"/>
				<line style="fill:none;stroke:#EE17E4;stroke-miterlimit:10;" x1="533.755" y1="206.519" x2="478.892" y2="260.233"/>
			</g>
		</g>
	</g>
	<g>
		<g>
			<g>
				<polygon style="fill:#C1FF44;" points="647.231,385.963 626.168,385.963 674.268,342.897 695.331,342.897 				"/>
				<polygon style="fill:#C1FF44;" points="607.629,385.963 591.832,385.963 623.596,357.245 639.394,357.245 				"/>
			</g>
		</g>
		<g>
			<polygon style="fill:#FFFFFF;" points="27.097,285.395 51.911,260.581 65.684,260.581 40.962,285.302 			"/>
			<polygon style="fill:#FFFFFF;" points="18.49,271.889 29.798,260.581 36.074,260.581 24.808,271.847 			"/>
		</g>
	</g>
	<g>
		<rect x="38.72" y="32.587" style="fill:#FFFFFF;" width="7.361" height="7.361"/>
		<rect x="50.057" y="21.25" style="fill:#FFFFFF;" width="7.361" height="7.361"/>
	</g>
	<g>
		<g>
			<g>
				<rect x="83.865" y="347.674" style="fill:#C1FF44;" width="23.942" height="6.297"/>
			</g>
			<g>
				<rect x="83.865" y="362.864" style="fill:#C1FF44;" width="11.971" height="6.297"/>
			</g>
		</g>
	</g>
</g>
</svg>
